<svg version="1.1" viewBox="0.0 0.0 687.5643044619422 384.03674540682414" fill="none" stroke="none" stroke-linecap="square" stroke-miterlimit="10" xmlns:xlink="http://www.w3.org/1999/xlink" xmlns="http://www.w3.org/2000/svg"><clipPath id="p.0"><path d="m0 0l687.56433 0l0 384.03674l-687.56433 0l0 -384.03674z" clip-rule="nonzero"/></clipPath><g clip-path="url(#p.0)"><path fill="#000000" fill-opacity="0.0" d="m0 0l687.56433 0l0 384.03674l-687.56433 0z" fill-rule="evenodd"/><g filter="url(#shadowFilter-p.1)"><use xlink:href="#p.1" transform="matrix(1.0 0.0 0.0 1.0 0.0 2.0)"/></g><defs><filter id="shadowFilter-p.1" filterUnits="userSpaceOnUse"><feGaussianBlur in="SourceAlpha" stdDeviation="2.0" result="blur"/><feComponentTransfer in="blur" color-interpolation-filters="sRGB"><feFuncR type="linear" slope="0" intercept="0.0"/><feFuncG type="linear" slope="0" intercept="0.0"/><feFuncB type="linear" slope="0" intercept="0.0"/><feFuncA type="linear" slope="0.5" intercept="0"/></feComponentTransfer></filter></defs><g id="p.1"><path fill="#f2f5f5" d="m0 0l687.5591 0l0 386.51968l-687.5591 0z" fill-rule="evenodd"/></g><path fill="#000000" fill-opacity="0.0" d="m460.31235 65.18635l0 0c0 -27.092388 21.962708 -49.055115 49.055115 -49.055115l0 0c13.010223 0 25.48758 5.168293 34.687225 14.367912c9.199585 9.199619 14.367859 21.67698 14.367859 34.687202l0 0c0 27.0924 -21.962708 49.055122 -49.055084 49.055122l0 0c-27.092407 0 -49.055115 -21.962723 -49.055115 -49.055122z" fill-rule="evenodd"/><path stroke="#999999" stroke-width="1.0" stroke-linejoin="round" stroke-linecap="butt" d="m460.31235 65.18635l0 0c0 -27.092388 21.962708 -49.055115 49.055115 -49.055115l0 0c13.010223 0 25.48758 5.168293 34.687225 14.367912c9.199585 9.199619 14.367859 21.67698 14.367859 34.687202l0 0c0 27.0924 -21.962708 49.055122 -49.055084 49.055122l0 0c-27.092407 0 -49.055115 -21.962723 -49.055115 -49.055122z" fill-rule="evenodd"/><path fill="#6aa84f" d="m469.24734 46.462013l0 0c1.7481995 -7.6711044 9.384033 -12.472588 17.055145 -10.724407l0 0c3.6837769 0.83950424 6.883209 3.1080055 8.894409 6.3064613c2.0112305 3.198452 2.6694946 7.0648613 1.8299866 10.748653l0 0c-1.748169 7.6711082 -9.384003 12.472591 -17.055115 10.724411l0 0c-7.671112 -1.7481766 -12.472595 -9.384014 -10.724426 -17.055119z" fill-rule="evenodd"/><path fill="#495057" d="m495.67465 30.115408l0 0c1.748169 -7.6711044 9.384033 -12.472586 17.055145 -10.724409l0 0c3.6837769 0.83950424 6.8831787 3.1080055 8.894409 6.3064613c2.0112305 3.198454 2.6694946 7.0648613 1.829956 10.748657l0 0c-1.748169 7.6711044 -9.383972 12.472588 -17.055084 10.724407l0 0c-7.671112 -1.7481766 -12.472595 -9.38401 -10.724426 -17.055117z" fill-rule="evenodd"/><path fill="#3c78d8" d="m523.1508 46.462013l0 0c1.748169 -7.6711044 9.383972 -12.472588 17.055115 -10.724407l0 0c3.6837769 0.83950424 6.8832397 3.1080055 8.894409 6.3064613c2.0112305 3.198452 2.6694946 7.0648613 1.8300171 10.748653l0 0c-1.74823 7.6711082 -9.384033 12.472591 -17.055115 10.724411l0 0c-7.6711426 -1.7481766 -12.472595 -9.384014 -10.724426 -17.055119z" fill-rule="evenodd"/><path fill="#ff623f" d="m467.8016 77.554214l0 0c1.748169 -7.6711044 9.384003 -12.47258 17.055115 -10.724403l0 0c3.6837769 0.8395004 6.883209 3.1080017 8.89444 6.3064575c2.0112 3.1984558 2.669464 7.064865 1.829956 10.748657l0 0c-1.748169 7.6711044 -9.384003 12.472588 -17.055115 10.724411l0 0c-7.671112 -1.7481766 -12.472565 -9.384018 -10.724396 -17.055122z" fill-rule="evenodd"/><path fill="#999999" d="m495.672 93.926506l0 0c1.748169 -7.6711044 9.384033 -12.472588 17.055115 -10.724411l0 0c3.6837769 0.83950806 6.8832397 3.1080093 8.89447 6.306465c2.0111694 3.1984482 2.6694336 7.0648575 1.829956 10.74865l0 0c-1.748169 7.671112 -9.384033 12.472588 -17.055115 10.724411l0 0c-7.671112 -1.7481766 -12.472595 -9.38401 -10.724426 -17.055115z" fill-rule="evenodd"/><path fill="#3c78d8" d="m522.7577 77.554214l0 0c1.748169 -7.6711044 9.384033 -12.47258 17.055115 -10.724403l0 0c3.683838 0.8395004 6.8832397 3.1080017 8.89447 6.3064575c2.0112305 3.1984558 2.6694946 7.064865 1.829956 10.748657l0 0c-1.748169 7.6711044 -9.384033 12.472588 -17.055115 10.724411l0 0c-7.6710815 -1.7481766 -12.472595 -9.384018 -10.724426 -17.055122z" fill-rule="evenodd"/><path fill="#000000" fill-opacity="0.0" d="m535.9829 197.08972l0 0c0 -27.092392 21.962769 -49.055115 49.055176 -49.055115l0 0c13.010193 0 25.487549 5.168289 34.687195 14.367905c9.199585 9.1996155 14.36792 21.676987 14.36792 34.68721l0 0c0 27.092392 -21.962769 49.055115 -49.055115 49.055115l0 0c-27.092407 0 -49.055176 -21.962723 -49.055176 -49.055115z" fill-rule="evenodd"/><path stroke="#999999" stroke-width="1.0" stroke-linejoin="round" stroke-linecap="butt" d="m535.9829 197.08972l0 0c0 -27.092392 21.962769 -49.055115 49.055176 -49.055115l0 0c13.010193 0 25.487549 5.168289 34.687195 14.367905c9.199585 9.1996155 14.36792 21.676987 14.36792 34.68721l0 0c0 27.092392 -21.962769 49.055115 -49.055115 49.055115l0 0c-27.092407 0 -49.055176 -21.962723 -49.055176 -49.055115z" fill-rule="evenodd"/><path fill="#6aa84f" d="m544.91797 178.36539l0 0c1.748169 -7.671112 9.384033 -12.472595 17.055115 -10.724411l0 0c3.6837769 0.83950806 6.8832397 3.1080017 8.894409 6.3064575c2.0112305 3.1984558 2.6694946 7.064865 1.8300171 10.748657l0 0c-1.748169 7.671112 -9.384033 12.47258 -17.055115 10.724411l0 0c-7.6711426 -1.7481842 -12.472595 -9.384018 -10.724426 -17.055115z" fill-rule="evenodd"/><path fill="#495057" d="m571.3453 162.01878l0 0c1.748169 -7.671112 9.383972 -12.472595 17.055115 -10.724411l0 0c3.6837769 0.8394928 6.8831787 3.1080017 8.894409 6.3064575c2.0112305 3.1984558 2.6694946 7.064865 1.8300171 10.748657l0 0c-1.74823 7.671097 -9.384033 12.47258 -17.055176 10.724411l0 0c-7.6710815 -1.7481842 -12.472534 -9.384018 -10.724365 -17.055115z" fill-rule="evenodd"/><path fill="#3c78d8" d="m598.8214 178.36539l0 0c1.748169 -7.671112 9.384033 -12.472595 17.055115 -10.724411l0 0c3.6837769 0.83950806 6.8832397 3.1080017 8.894409 6.3064575c2.0112305 3.1984558 2.6694946 7.064865 1.8300171 10.748657l0 0c-1.748169 7.671112 -9.384033 12.47258 -17.055115 10.724411l0 0c-7.6711426 -1.7481842 -12.472595 -9.384018 -10.724426 -17.055115z" fill-rule="evenodd"/><path fill="#ff623f" d="m543.4722 209.45758l0 0c1.748169 -7.671097 9.383972 -12.47258 17.055115 -10.724411l0 0c3.6837769 0.83950806 6.8831787 3.108017 8.894409 6.306473c2.0112305 3.1984558 2.6694946 7.064865 1.829956 10.748657l0 0c-1.748169 7.671097 -9.383972 12.47258 -17.055115 10.724411l0 0c-7.6710815 -1.7481842 -12.472595 -9.384018 -10.724365 -17.05513z" fill-rule="evenodd"/><path fill="#999999" d="m571.3426 225.82988l0 0c1.748169 -7.671112 9.384033 -12.472595 17.055115 -10.724411l0 0c3.683838 0.8394928 6.8832397 3.1080017 8.89447 6.3064575c2.0112305 3.1984558 2.6694336 7.064865 1.829956 10.748657l0 0c-1.748169 7.671097 -9.384033 12.47258 -17.055115 10.724411l0 0c-7.6710815 -1.7481842 -12.472595 -9.384018 -10.724426 -17.055115z" fill-rule="evenodd"/><path fill="#3c78d8" d="m598.4283 209.45758l0 0c1.74823 -7.671097 9.384033 -12.47258 17.055176 -10.724411l0 0c3.6837769 0.83950806 6.8831787 3.108017 8.894409 6.306473c2.0112305 3.1984558 2.6694946 7.064865 1.829956 10.748657l0 0c-1.748169 7.671097 -9.383972 12.47258 -17.055115 10.724411l0 0c-7.6710815 -1.7481842 -12.472595 -9.384018 -10.724426 -17.05513z" fill-rule="evenodd"/><path fill="#000000" fill-opacity="0.0" d="m459.3604 320.3814l0 0c0 -27.092407 21.962708 -49.055115 49.055115 -49.055115l0 0c13.010193 0 25.487549 5.168274 34.687195 14.367889c9.199646 9.1996155 14.36792 21.677002 14.36792 34.687225l0 0c0 27.092377 -21.962708 49.055115 -49.055115 49.055115l0 0c-27.092407 0 -49.055115 -21.962738 -49.055115 -49.055115z" fill-rule="evenodd"/><path stroke="#999999" stroke-width="1.0" stroke-linejoin="round" stroke-linecap="butt" d="m459.3604 320.3814l0 0c0 -27.092407 21.962708 -49.055115 49.055115 -49.055115l0 0c13.010193 0 25.487549 5.168274 34.687195 14.367889c9.199646 9.1996155 14.36792 21.677002 14.36792 34.687225l0 0c0 27.092377 -21.962708 49.055115 -49.055115 49.055115l0 0c-27.092407 0 -49.055115 -21.962738 -49.055115 -49.055115z" fill-rule="evenodd"/><path fill="#6aa84f" d="m468.2954 301.65707l0 0c1.7481995 -7.671112 9.384033 -12.472595 17.055145 -10.724426l0 0c3.6837769 0.83950806 6.883209 3.1080017 8.894409 6.3064575c2.0112305 3.1984558 2.6694946 7.0648804 1.8299866 10.748657l0 0c-1.748169 7.671112 -9.384003 12.472595 -17.055115 10.724426l0 0c-7.671112 -1.7481995 -12.472595 -9.384033 -10.724426 -17.055115z" fill-rule="evenodd"/><path fill="#495057" d="m494.72272 285.31046l0 0c1.748169 -7.671112 9.384003 -12.472595 17.055115 -10.724396l0 0c3.6837769 0.83947754 6.8832397 3.1080017 8.89447 6.3064575c2.0111694 3.1984558 2.6694336 7.06485 1.829956 10.748657l0 0c-1.748169 7.6710815 -9.384033 12.472565 -17.055115 10.724396l0 0c-7.671112 -1.748169 -12.472595 -9.384003 -10.724426 -17.055115z" fill-rule="evenodd"/><path fill="#3c78d8" d="m522.19885 301.65707l0 0c1.748169 -7.671112 9.384033 -12.472595 17.055115 -10.724426l0 0c3.683838 0.83950806 6.8832397 3.1080017 8.89447 6.3064575c2.0112305 3.1984558 2.6694946 7.0648804 1.829956 10.748657l0 0c-1.748169 7.671112 -9.384033 12.472595 -17.055115 10.724426l0 0c-7.6710815 -1.7481995 -12.472595 -9.384033 -10.724426 -17.055115z" fill-rule="evenodd"/><path fill="#ff623f" d="m466.84967 332.74927l0 0c1.748169 -7.671112 9.384003 -12.472595 17.055115 -10.724426l0 0c3.6837769 0.83950806 6.883209 3.1080322 8.89444 6.306488c2.0112 3.1984558 2.669464 7.06485 1.829956 10.748657l0 0c-1.748169 7.6710815 -9.384003 12.472565 -17.055115 10.724396l0 0c-7.671112 -1.748169 -12.472565 -9.384003 -10.724396 -17.055115z" fill-rule="evenodd"/><path fill="#999999" d="m494.72006 349.12155l0 0c1.748169 -7.671112 9.384033 -12.472595 17.055115 -10.724396l0 0c3.6838074 0.83947754 6.883209 3.1080017 8.89444 6.3064575c2.0112305 3.1984558 2.6694946 7.06485 1.829956 10.748657l0 0c-1.748169 7.6710815 -9.383972 12.472565 -17.055084 10.724396l0 0c-7.671112 -1.748169 -12.472595 -9.384003 -10.724426 -17.055115z" fill-rule="evenodd"/><path fill="#3c78d8" d="m521.8058 332.74927l0 0c1.748169 -7.671112 9.383972 -12.472595 17.055115 -10.724426l0 0c3.6837769 0.83950806 6.8831787 3.1080322 8.894409 6.306488c2.0112305 3.1984558 2.6694946 7.06485 1.8300171 10.748657l0 0c-1.74823 7.6710815 -9.384033 12.472565 -17.055115 10.724396l0 0c-7.6711426 -1.748169 -12.472595 -9.384003 -10.724426 -17.055115z" fill-rule="evenodd"/><path fill="#000000" fill-opacity="0.0" d="m311.27286 65.18635l0 0c0 -27.092388 21.962708 -49.055115 49.055115 -49.055115l0 0c13.010223 0 25.48758 5.168293 34.687195 14.367912c9.1996155 9.199619 14.36792 21.67698 14.36792 34.687202l0 0c0 27.0924 -21.962738 49.055122 -49.055115 49.055122l0 0c-27.092407 0 -49.055115 -21.962723 -49.055115 -49.055122z" fill-rule="evenodd"/><path stroke="#999999" stroke-width="1.0" stroke-linejoin="round" stroke-linecap="butt" d="m311.27286 65.18635l0 0c0 -27.092388 21.962708 -49.055115 49.055115 -49.055115l0 0c13.010223 0 25.48758 5.168293 34.687195 14.367912c9.1996155 9.199619 14.36792 21.67698 14.36792 34.687202l0 0c0 27.0924 -21.962738 49.055122 -49.055115 49.055122l0 0c-27.092407 0 -49.055115 -21.962723 -49.055115 -49.055122z" fill-rule="evenodd"/><path fill="#6aa84f" d="m320.20786 46.462013l0 0c1.7481995 -7.6711044 9.384033 -12.472588 17.055145 -10.724407l0 0c3.6837769 0.83950424 6.883209 3.1080055 8.894409 6.3064613c2.0112305 3.198452 2.6694946 7.0648613 1.8299866 10.748653l0 0c-1.748169 7.6711082 -9.384003 12.472591 -17.055115 10.724411l0 0c-7.671112 -1.7481766 -12.472595 -9.384014 -10.724426 -17.055119z" fill-rule="evenodd"/><path fill="#495057" d="m346.63516 30.115408l0 0c1.748169 -7.6711044 9.384033 -12.472586 17.055115 -10.724409l0 0c3.6838074 0.83950424 6.8832397 3.1080055 8.89444 6.3064613c2.0112305 3.198454 2.6694946 7.0648613 1.8299866 10.748657l0 0c-1.7481995 7.6711044 -9.384033 12.472588 -17.055115 10.724407l0 0c-7.671112 -1.7481766 -12.472595 -9.38401 -10.724426 -17.055117z" fill-rule="evenodd"/><path fill="#3c78d8" d="m374.11133 46.462013l0 0c1.748169 -7.6711044 9.384003 -12.472588 17.055115 -10.724407l0 0c3.6837769 0.83950424 6.883209 3.1080055 8.89444 6.3064613c2.0112 3.198452 2.669464 7.0648613 1.829956 10.748653l0 0c-1.748169 7.6711082 -9.384003 12.472591 -17.055115 10.724411l0 0c-7.671112 -1.7481766 -12.472595 -9.384014 -10.724396 -17.055119z" fill-rule="evenodd"/><path fill="#ff623f" d="m318.76212 77.554214l0 0c1.748169 -7.6711044 9.384003 -12.47258 17.055115 -10.724403l0 0c3.6837769 0.8395004 6.883209 3.1080017 8.89444 6.3064575c2.0112 3.1984558 2.669464 7.064865 1.829956 10.748657l0 0c-1.748169 7.6711044 -9.384003 12.472588 -17.055115 10.724411l0 0c-7.671112 -1.7481766 -12.472565 -9.384018 -10.724396 -17.055122z" fill-rule="evenodd"/><path fill="#999999" d="m346.6325 93.926506l0 0c1.748169 -7.6711044 9.384033 -12.472588 17.055115 -10.724411l0 0c3.6838074 0.83950806 6.8832397 3.1080093 8.89444 6.306465c2.0112305 3.1984482 2.6694946 7.0648575 1.8299866 10.74865l0 0c-1.7481995 7.671112 -9.384033 12.472588 -17.055115 10.724411l0 0c-7.671112 -1.7481766 -12.472595 -9.38401 -10.724426 -17.055115z" fill-rule="evenodd"/><path fill="#3c78d8" d="m373.71823 77.554214l0 0c1.748169 -7.6711044 9.384003 -12.47258 17.055115 -10.724403l0 0c3.6837769 0.8395004 6.883209 3.1080017 8.89444 6.3064575c2.0112 3.1984558 2.669464 7.064865 1.829956 10.748657l0 0c-1.748169 7.6711044 -9.384003 12.472588 -17.055115 10.724411l0 0c-7.671112 -1.7481766 -12.472595 -9.384018 -10.724396 -17.055122z" fill-rule="evenodd"/><path fill="#000000" fill-opacity="0.0" d="m233.37401 197.08972l0 0c0 -27.092392 21.962738 -49.055115 49.05513 -49.055115l0 0c13.010223 0 25.48758 5.168289 34.687195 14.367905c9.1996155 9.1996155 14.36792 21.676987 14.36792 34.68721l0 0c0 27.092392 -21.962738 49.055115 -49.055115 49.055115l0 0c-27.092392 0 -49.05513 -21.962723 -49.05513 -49.055115z" fill-rule="evenodd"/><path stroke="#999999" stroke-width="1.0" stroke-linejoin="round" stroke-linecap="butt" d="m233.37401 197.08972l0 0c0 -27.092392 21.962738 -49.055115 49.05513 -49.055115l0 0c13.010223 0 25.48758 5.168289 34.687195 14.367905c9.1996155 9.1996155 14.36792 21.676987 14.36792 34.68721l0 0c0 27.092392 -21.962738 49.055115 -49.055115 49.055115l0 0c-27.092392 0 -49.05513 -21.962723 -49.05513 -49.055115z" fill-rule="evenodd"/><path fill="#6aa84f" d="m242.30904 178.36539l0 0c1.7481842 -7.671112 9.384018 -12.472595 17.05513 -10.724411l0 0c3.6837769 0.83950806 6.883209 3.1080017 8.89444 6.3064575c2.0112 3.1984558 2.669464 7.064865 1.829956 10.748657l0 0c-1.748169 7.671112 -9.384003 12.47258 -17.055115 10.724411l0 0c-7.671097 -1.7481842 -12.47258 -9.384018 -10.724411 -17.055115z" fill-rule="evenodd"/><path fill="#495057" d="m268.73633 162.01878l0 0c1.7481995 -7.671112 9.384033 -12.472595 17.055115 -10.724411l0 0c3.6838074 0.8394928 6.8832397 3.1080017 8.89444 6.3064575c2.0112305 3.1984558 2.6694946 7.064865 1.8299866 10.748657l0 0c-1.748169 7.671097 -9.384033 12.47258 -17.055115 10.724411l0 0c-7.671112 -1.7481842 -12.472595 -9.384018 -10.724426 -17.055115z" fill-rule="evenodd"/><path fill="#3c78d8" d="m296.2125 178.36539l0 0c1.748169 -7.671112 9.384003 -12.472595 17.055115 -10.724411l0 0c3.6837769 0.83950806 6.883209 3.1080017 8.89444 6.3064575c2.0112 3.1984558 2.669464 7.064865 1.829956 10.748657l0 0c-1.748169 7.671112 -9.384003 12.47258 -17.055115 10.724411l0 0c-7.671112 -1.7481842 -12.472595 -9.384018 -10.724396 -17.055115z" fill-rule="evenodd"/><path fill="#ff623f" d="m240.86328 209.45758l0 0c1.748169 -7.671097 9.384018 -12.47258 17.055115 -10.724411l0 0c3.6838074 0.83950806 6.883209 3.108017 8.89444 6.306473c2.0112 3.1984558 2.669464 7.064865 1.829956 10.748657l0 0c-1.748169 7.671097 -9.384003 12.47258 -17.0551 10.724411l0 0c-7.671112 -1.7481842 -12.472595 -9.384018 -10.724411 -17.05513z" fill-rule="evenodd"/><path fill="#999999" d="m268.73367 225.82988l0 0c1.7481995 -7.671112 9.384033 -12.472595 17.055115 -10.724411l0 0c3.6838074 0.8394928 6.8832397 3.1080017 8.89444 6.3064575c2.0112305 3.1984558 2.6694946 7.064865 1.8299866 10.748657l0 0c-1.748169 7.671097 -9.384003 12.47258 -17.055115 10.724411l0 0c-7.671112 -1.7481842 -12.472595 -9.384018 -10.724426 -17.055115z" fill-rule="evenodd"/><path fill="#3c78d8" d="m295.8194 209.45758l0 0c1.748169 -7.671097 9.384003 -12.47258 17.055115 -10.724411l0 0c3.6837769 0.83950806 6.883209 3.108017 8.89444 6.306473c2.0112 3.1984558 2.669464 7.064865 1.829956 10.748657l0 0c-1.748169 7.671097 -9.384003 12.47258 -17.055115 10.724411l0 0c-7.671112 -1.7481842 -12.472595 -9.384018 -10.724396 -17.05513z" fill-rule="evenodd"/><path fill="#000000" fill-opacity="0.0" d="m311.27286 321.33334l0 0c0 -27.092407 21.962708 -49.055115 49.055115 -49.055115l0 0c13.010223 0 25.48758 5.168274 34.687195 14.367889c9.1996155 9.1996155 14.36792 21.677002 14.36792 34.687225l0 0c0 27.092377 -21.962738 49.055115 -49.055115 49.055115l0 0c-27.092407 0 -49.055115 -21.962738 -49.055115 -49.055115z" fill-rule="evenodd"/><path stroke="#999999" stroke-width="1.0" stroke-linejoin="round" stroke-linecap="butt" d="m311.27286 321.33334l0 0c0 -27.092407 21.962708 -49.055115 49.055115 -49.055115l0 0c13.010223 0 25.48758 5.168274 34.687195 14.367889c9.1996155 9.1996155 14.36792 21.677002 14.36792 34.687225l0 0c0 27.092377 -21.962738 49.055115 -49.055115 49.055115l0 0c-27.092407 0 -49.055115 -21.962738 -49.055115 -49.055115z" fill-rule="evenodd"/><path fill="#6aa84f" d="m320.20786 302.609l0 0c1.7481995 -7.671112 9.384033 -12.472595 17.055145 -10.724426l0 0c3.6837769 0.83950806 6.883209 3.1080017 8.894409 6.3064575c2.0112305 3.1984558 2.6694946 7.0648804 1.8299866 10.748657l0 0c-1.748169 7.671112 -9.384003 12.472595 -17.055115 10.724426l0 0c-7.671112 -1.7481995 -12.472595 -9.384033 -10.724426 -17.055115z" fill-rule="evenodd"/><path fill="#495057" d="m346.63516 286.2624l0 0c1.748169 -7.671112 9.384033 -12.472595 17.055115 -10.724396l0 0c3.6838074 0.83947754 6.8832397 3.1080017 8.89444 6.3064575c2.0112305 3.1984558 2.6694946 7.06485 1.8299866 10.748657l0 0c-1.7481995 7.6710815 -9.384033 12.472565 -17.055115 10.724396l0 0c-7.671112 -1.748169 -12.472595 -9.384003 -10.724426 -17.055115z" fill-rule="evenodd"/><path fill="#3c78d8" d="m374.11133 302.609l0 0c1.748169 -7.671112 9.384003 -12.472595 17.055115 -10.724426l0 0c3.6837769 0.83950806 6.883209 3.1080017 8.89444 6.3064575c2.0112 3.1984558 2.669464 7.0648804 1.829956 10.748657l0 0c-1.748169 7.671112 -9.384003 12.472595 -17.055115 10.724426l0 0c-7.671112 -1.7481995 -12.472595 -9.384033 -10.724396 -17.055115z" fill-rule="evenodd"/><path fill="#ff623f" d="m318.76212 333.7012l0 0c1.748169 -7.671112 9.384003 -12.472595 17.055115 -10.724426l0 0c3.6837769 0.83950806 6.883209 3.1080322 8.89444 6.306488c2.0112 3.1984558 2.669464 7.06485 1.829956 10.748657l0 0c-1.748169 7.6710815 -9.384003 12.472565 -17.055115 10.724396l0 0c-7.671112 -1.748169 -12.472565 -9.384003 -10.724396 -17.055115z" fill-rule="evenodd"/><path fill="#999999" d="m346.6325 350.0735l0 0c1.748169 -7.671112 9.384033 -12.472595 17.055115 -10.724396l0 0c3.6838074 0.83947754 6.8832397 3.1080017 8.89444 6.3064575c2.0112305 3.1984558 2.6694946 7.06485 1.8299866 10.748657l0 0c-1.7481995 7.6710815 -9.384033 12.472565 -17.055115 10.724396l0 0c-7.671112 -1.748169 -12.472595 -9.384003 -10.724426 -17.055115z" fill-rule="evenodd"/><path fill="#3c78d8" d="m373.71823 333.7012l0 0c1.748169 -7.671112 9.384003 -12.472595 17.055115 -10.724426l0 0c3.6837769 0.83950806 6.883209 3.1080322 8.89444 6.306488c2.0112 3.1984558 2.669464 7.06485 1.829956 10.748657l0 0c-1.748169 7.6710815 -9.384003 12.472565 -17.055115 10.724396l0 0c-7.671112 -1.748169 -12.472595 -9.384003 -10.724396 -17.055115z" fill-rule="evenodd"/><path fill="#000000" fill-opacity="0.0" d="m385.1786 107.530396l15.401581 55.27559" fill-rule="evenodd"/><path stroke="#999999" stroke-width="1.0" stroke-linejoin="round" stroke-linecap="butt" d="m385.1786 107.530396l15.401581 55.27559" fill-rule="evenodd"/><path fill="#000000" fill-opacity="0.0" d="m465.59842 231.33595l20.913391 43.81102" fill-rule="evenodd"/><path stroke="#999999" stroke-width="1.0" stroke-linejoin="round" stroke-linecap="butt" d="m465.59842 231.33595l20.913391 43.81102" fill-rule="evenodd"/><path fill="#000000" fill-opacity="0.0" d="m502.43842 197.08945l33.543335 0" fill-rule="evenodd"/><path stroke="#999999" stroke-width="1.0" stroke-linejoin="round" stroke-linecap="butt" d="m502.43842 197.08945l33.543335 0" fill-rule="evenodd"/><path fill="#000000" fill-opacity="0.0" d="m331.4778 197.08945l29.480316 0" fill-rule="evenodd"/><path stroke="#999999" stroke-width="1.0" stroke-linejoin="round" stroke-linecap="butt" d="m331.4778 197.08945l29.480316 0" fill-rule="evenodd"/><path fill="#000000" fill-opacity="0.0" d="m479.22583 105.01071l-14.204712 59.55905" fill-rule="evenodd"/><path stroke="#999999" stroke-width="1.0" stroke-linejoin="round" stroke-linecap="butt" d="m479.22583 105.01071l-14.204712 59.55905" fill-rule="evenodd"/><path fill="#000000" fill-opacity="0.0" d="m394.1496 231.33595l-18.519684 43.96852" fill-rule="evenodd"/><path stroke="#999999" stroke-width="1.0" stroke-linejoin="round" stroke-linecap="butt" d="m394.1496 231.33595l-18.519684 43.96852" fill-rule="evenodd"/><path fill="#000000" fill-opacity="0.0" d="m0 0l273.07086 0l0 48.94488l-273.07086 0z" fill-rule="evenodd"/><path fill="#000000" d="m29.609375 38.89244l0 -13.015625l8.125 0l0 1.859375l-6.015625 0l0 3.625l5.34375 0l0 1.859375l-5.34375 0l0 5.671875l-2.109375 0zm12.555939 0q-1.046875 0 -1.5625 -0.53125q-0.515625 -0.53125 -0.515625 -1.484375l0 -11.796875l2.03125 0l0 12.15625l1.34375 0l0 1.65625l-1.296875 0zm10.348282 0q-0.796875 0 -1.234375 -0.453125q-0.421875 -0.46875 -0.515625 -1.171875l-0.09375 0q-0.28125 0.921875 -1.03125 1.390625q-0.75 0.453125 -1.8125 0.453125q-1.5 0 -2.3125 -0.78125q-0.8125 -0.78125 -0.8125 -2.109375q0 -1.453125 1.046875 -2.171875q1.0625 -0.734375 3.09375 -0.734375l1.75 0l0 -0.828125q0 -0.890625 -0.484375 -1.375q-0.484375 -0.484375 -1.515625 -0.484375q-0.859375 0 -1.40625 0.375q-0.53125 0.375 -0.90625 0.953125l-1.203125 -1.109375q0.484375 -0.8125 1.359375 -1.34375q0.875 -0.53125 2.296875 -0.53125q1.875 0 2.875 0.875q1.015625 0.875 1.015625 2.515625l0 4.875l1.03125 0l0 1.65625l-1.140625 0zm-4.109375 -1.328125q0.953125 0 1.5625 -0.421875q0.625 -0.421875 0.625 -1.125l0 -1.390625l-1.71875 0q-2.109375 0 -2.109375 1.296875l0 0.34375q0 0.640625 0.4375 0.96875q0.4375 0.328125 1.203125 0.328125zm9.873779 1.328125q-1.0625 0 -1.609375 -0.546875q-0.53125 -0.546875 -0.53125 -1.5625l0 -5.9375l-1.515625 0l0 -1.65625l0.828125 0q0.5 0 0.6875 -0.21875q0.203125 -0.234375 0.203125 -0.734375l0 -1.6875l1.828125 0l0 2.640625l2.03125 0l0 1.65625l-2.03125 0l0 6.390625l1.875 0l0 1.65625l-1.765625 0zm11.603043 0.21875q-1.375 0 -2.3125 -0.484375q-0.9375 -0.484375 -1.625 -1.34375l1.3125 -1.1875q0.53125 0.65625 1.1875 1.015625q0.671875 0.359375 1.546875 0.359375q0.90625 0 1.34375 -0.34375q0.4375 -0.34375 0.4375 -0.953125q0 -0.46875 -0.3125 -0.796875q-0.3125 -0.328125 -1.078125 -0.421875l-0.890625 -0.109375q-1.484375 -0.1875 -2.34375 -0.859375q-0.84375 -0.6875 -0.84375 -2.03125q0 -0.71875 0.25 -1.265625q0.265625 -0.546875 0.734375 -0.921875q0.484375 -0.390625 1.140625 -0.59375q0.671875 -0.203125 1.46875 -0.203125q1.3125 0 2.140625 0.40625q0.828125 0.40625 1.484375 1.140625l-1.25 1.1875q-0.375 -0.4375 -0.984375 -0.765625q-0.609375 -0.328125 -1.390625 -0.328125q-0.828125 0 -1.234375 0.34375q-0.40625 0.328125 -0.40625 0.859375q0 0.5625 0.359375 0.84375q0.359375 0.28125 1.140625 0.40625l0.890625 0.125q1.609375 0.234375 2.34375 0.9375q0.734375 0.703125 0.734375 1.875q0 0.703125 -0.28125 1.28125q-0.265625 0.5625 -0.765625 0.984375q-0.5 0.40625 -1.21875 0.625q-0.703125 0.21875 -1.578125 0.21875zm8.6949005 -0.21875q-1.0625 0 -1.609375 -0.546875q-0.53125 -0.546875 -0.53125 -1.5625l0 -5.9375l-1.515625 0l0 -1.65625l0.828125 0q0.5 0 0.6875 -0.21875q0.203125 -0.234375 0.203125 -0.734375l0 -1.6875l1.828125 0l0 2.640625l2.03125 0l0 1.65625l-2.03125 0l0 6.390625l1.875 0l0 1.65625l-1.765625 0zm4.12204 0l0 -9.703125l2.03125 0l0 1.875l0.09375 0q0.203125 -0.75 0.859375 -1.3125q0.65625 -0.5625 1.8125 -0.5625l0.546875 0l0 1.953125l-0.8125 0q-1.203125 0 -1.859375 0.40625q-0.640625 0.390625 -0.640625 1.15625l0 6.1875l-2.03125 0zm13.02034 -1.609375l-0.078125 0q-0.125 0.359375 -0.34375 0.703125q-0.203125 0.328125 -0.53125 0.578125q-0.328125 0.25 -0.796875 0.390625q-0.453125 0.15625 -1.046875 0.15625q-1.515625 0 -2.34375 -0.96875q-0.828125 -0.96875 -0.828125 -2.78125l0 -6.171875l2.03125 0l0 5.921875q0 2.25 1.875 2.25q0.390625 0 0.765625 -0.09375q0.375 -0.109375 0.65625 -0.3125q0.296875 -0.203125 0.46875 -0.515625q0.171875 -0.328125 0.171875 -0.75l0 -6.5l2.03125 0l0 9.703125l-2.03125 0l0 -1.609375zm8.695633 1.828125q-1.046875 0 -1.875 -0.34375q-0.8125 -0.359375 -1.375 -1.015625q-0.546875 -0.671875 -0.859375 -1.609375q-0.296875 -0.9375 -0.296875 -2.09375q0 -1.15625 0.296875 -2.09375q0.3125 -0.953125 0.859375 -1.609375q0.5625 -0.671875 1.375 -1.015625q0.828125 -0.359375 1.875 -0.359375q1.453125 0 2.390625 0.65625q0.9375 0.640625 1.359375 1.734375l-1.671875 0.78125q-0.203125 -0.671875 -0.71875 -1.078125q-0.515625 -0.40625 -1.359375 -0.40625q-1.125 0 -1.6875 0.703125q-0.5625 0.703125 -0.5625 1.828125l0 1.734375q0 1.109375 0.5625 1.8125q0.5625 0.703125 1.6875 0.703125q0.890625 0 1.421875 -0.4375q0.53125 -0.4375 0.859375 -1.171875l1.546875 0.828125q-0.484375 1.1875 -1.453125 1.828125q-0.96875 0.625 -2.375 0.625zm8.452194 -0.21875q-1.0625 0 -1.609375 -0.546875q-0.53125 -0.546875 -0.53125 -1.5625l0 -5.9375l-1.515625 0l0 -1.65625l0.828125 0q0.5 0 0.6875 -0.21875q0.203125 -0.234375 0.203125 -0.734375l0 -1.6875l1.828125 0l0 2.640625l2.03125 0l0 1.65625l-2.03125 0l0 6.390625l1.875 0l0 1.65625l-1.765625 0zm9.99704 -1.609375l-0.078125 0q-0.125 0.359375 -0.34375 0.703125q-0.203125 0.328125 -0.53125 0.578125q-0.328125 0.25 -0.796875 0.390625q-0.453125 0.15625 -1.046875 0.15625q-1.515625 0 -2.34375 -0.96875q-0.828125 -0.96875 -0.828125 -2.78125l0 -6.171875l2.03125 0l0 5.921875q0 2.25 1.875 2.25q0.390625 0 0.765625 -0.09375q0.375 -0.109375 0.65625 -0.3125q0.296875 -0.203125 0.46875 -0.515625q0.171875 -0.328125 0.171875 -0.75l0 -6.5l2.03125 0l0 9.703125l-2.03125 0l0 -1.609375zm4.945633 1.609375l0 -9.703125l2.03125 0l0 1.875l0.09375 0q0.203125 -0.75 0.859375 -1.3125q0.65625 -0.5625 1.8125 -0.5625l0.546875 0l0 1.953125l-0.8125 0q-1.203125 0 -1.859375 0.40625q-0.640625 0.390625 -0.640625 1.15625l0 6.1875l-2.03125 0zm10.864502 0.21875q-1.046875 0 -1.875 -0.34375q-0.8125 -0.359375 -1.390625 -1.015625q-0.578125 -0.671875 -0.890625 -1.609375q-0.3125 -0.9375 -0.3125 -2.09375q0 -1.15625 0.3125 -2.09375q0.3125 -0.953125 0.890625 -1.609375q0.578125 -0.671875 1.390625 -1.015625q0.828125 -0.359375 1.875 -0.359375q1.0625 0 1.875 0.375q0.8125 0.375 1.34375 1.03125q0.546875 0.65625 0.8125 1.546875q0.28125 0.875 0.28125 1.875l0 0.765625l-6.671875 0l0 0.3125q0 1.125 0.65625 1.84375q0.671875 0.71875 1.90625 0.71875q0.890625 0 1.5 -0.390625q0.625 -0.390625 1.046875 -1.0625l1.203125 1.171875q-0.546875 0.890625 -1.578125 1.421875q-1.015625 0.53125 -2.375 0.53125zm0 -8.5625q-0.53125 0 -0.96875 0.1875q-0.4375 0.1875 -0.75 0.53125q-0.296875 0.328125 -0.46875 0.796875q-0.171875 0.46875 -0.171875 1.03125l0 0.125l4.515625 0l0 -0.1875q0 -1.125 -0.578125 -1.796875q-0.578125 -0.6875 -1.578125 -0.6875z" fill-rule="nonzero"/><path fill="#6aa84f" d="m21.138859 250.81169l0 0c0 -7.8972473 6.3878746 -14.29921 14.267715 -14.29921l0 0c3.7840347 0 7.413086 1.5065155 10.088802 4.188141c2.6757126 2.6816254 4.178917 6.31868 4.178917 10.111069l0 0c0 7.897232 -6.3878746 14.29921 -14.267719 14.29921l0 0c-7.879841 0 -14.267715 -6.4019775 -14.267715 -14.29921z" fill-rule="evenodd"/><path fill="#ff623f" d="m21.138859 284.2185l0 0c0 -7.897217 6.3878746 -14.299194 14.267715 -14.299194l0 0c3.7840347 0 7.413086 1.5065002 10.088802 4.188141c2.6757126 2.68161 4.178917 6.3186646 4.178917 10.111053l0 0c0 7.8972473 -6.3878746 14.299225 -14.267719 14.299225l0 0c-7.879841 0 -14.267715 -6.4019775 -14.267715 -14.299225z" fill-rule="evenodd"/><path fill="#3c78d8" d="m21.138859 317.62534l0 0c0 -7.8972473 6.3878746 -14.299225 14.267715 -14.299225l0 0c3.7840347 0 7.413086 1.5065308 10.088802 4.188141c2.6757126 2.6816406 4.178917 6.318695 4.178917 10.111084l0 0c0 7.8972473 -6.3878746 14.299225 -14.267719 14.299225l0 0c-7.879841 0 -14.267715 -6.4019775 -14.267715 -14.299225z" fill-rule="evenodd"/><path fill="#999999" d="m21.138859 351.03217l0 0c0 -7.8972473 6.3878746 -14.299225 14.267715 -14.299225l0 0c3.7840347 0 7.413086 1.5065308 10.088802 4.188141c2.6757126 2.6816406 4.178917 6.318695 4.178917 10.111084l0 0c0 7.8972473 -6.3878746 14.299194 -14.267719 14.299194l0 0c-7.879841 0 -14.267715 -6.401947 -14.267715 -14.299194z" fill-rule="evenodd"/><path fill="#000000" fill-opacity="0.0" d="m52.53281 236.51181l171.1811 0l0 28.59842l-171.1811 0z" fill-rule="evenodd"/><path fill="#000000" d="m66.25156 256.85852q-1.40625 0 -2.3906212 -0.5q-0.984375 -0.515625 -1.6875 -1.390625l1.25 -1.15625q0.5937462 0.71875 1.2968712 1.09375q0.71875 0.359375 1.625 0.359375q1.078125 0 1.609375 -0.484375q0.546875 -0.484375 0.546875 -1.296875q0 -0.65625 -0.390625 -1.03125q-0.375 -0.390625 -1.34375 -0.578125l-1.0 -0.171875q-1.625 -0.3125 -2.4531212 -1.078125q-0.8125 -0.765625 -0.8125 -2.109375q0 -0.734375 0.28125 -1.328125q0.28125 -0.609375 0.78125 -1.015625q0.5156212 -0.40625 1.2343712 -0.625q0.71875 -0.234375 1.609375 -0.234375q1.265625 0 2.1875 0.4375q0.9375 0.4375 1.59375 1.28125l-1.265625 1.109375q-0.4375 -0.5625 -1.0625 -0.890625q-0.609375 -0.34375 -1.546875 -0.34375q-0.953125 0 -1.484375 0.390625q-0.53125 0.390625 -0.53125 1.125q0 0.703125 0.421875 1.046875q0.4375 0.34375 1.359375 0.515625l0.984375 0.203125q1.6875 0.328125 2.453125 1.09375q0.78125 0.765625 0.78125 2.109375q0 0.78125 -0.28125 1.421875q-0.265625 0.640625 -0.78125 1.109375q-0.515625 0.453125 -1.265625 0.703125q-0.75 0.234375 -1.71875 0.234375zm11.130524 -1.5625l-0.0625 0q-0.109375 0.296875 -0.296875 0.59375q-0.171875 0.28125 -0.453125 0.5q-0.28125 0.21875 -0.671875 0.34375q-0.390625 0.125 -0.90625 0.125q-1.296875 0 -2.015625 -0.828125q-0.703125 -0.828125 -0.703125 -2.390625l0 -5.28125l1.734375 0l0 5.0625q0 1.9375 1.609375 1.9375q0.328125 0 0.640625 -0.078125q0.328125 -0.09375 0.578125 -0.265625q0.25 -0.1875 0.390625 -0.453125q0.15625 -0.28125 0.15625 -0.640625l0 -5.5625l1.75 0l0 8.3125l-1.75 0l0 -1.375zm7.467514 1.5625q-0.90625 0 -1.609375 -0.296875q-0.703125 -0.3125 -1.1875 -0.875q-0.46875 -0.5625 -0.734375 -1.375q-0.25 -0.8125 -0.25 -1.796875q0 -1.0 0.25 -1.796875q0.265625 -0.8125 0.734375 -1.375q0.484375 -0.578125 1.1875 -0.875q0.703125 -0.3125 1.609375 -0.3125q1.25 0 2.046875 0.5625q0.796875 0.5625 1.171875 1.484375l-1.453125 0.671875q-0.171875 -0.578125 -0.609375 -0.921875q-0.4375 -0.34375 -1.15625 -0.34375q-0.96875 0 -1.453125 0.609375q-0.484375 0.59375 -0.484375 1.5625l0 1.484375q0 0.953125 0.484375 1.5625q0.484375 0.59375 1.453125 0.59375q0.765625 0 1.21875 -0.375q0.453125 -0.375 0.734375 -1.0l1.328125 0.703125q-0.421875 1.03125 -1.265625 1.578125q-0.828125 0.53125 -2.015625 0.53125zm8.064026 0q-0.90625 0 -1.609375 -0.296875q-0.703125 -0.3125 -1.1875 -0.875q-0.46875 -0.5625 -0.734375 -1.375q-0.25 -0.8125 -0.25 -1.796875q0 -1.0 0.25 -1.796875q0.265625 -0.8125 0.734375 -1.375q0.484375 -0.578125 1.1875 -0.875q0.703125 -0.3125 1.609375 -0.3125q1.25 0 2.046875 0.5625q0.796875 0.5625 1.171875 1.484375l-1.453125 0.671875q-0.171875 -0.578125 -0.609375 -0.921875q-0.4375 -0.34375 -1.15625 -0.34375q-0.96875 0 -1.453125 0.609375q-0.484375 0.59375 -0.484375 1.5625l0 1.484375q0 0.953125 0.484375 1.5625q0.484375 0.59375 1.453125 0.59375q0.765625 0 1.21875 -0.375q0.453125 -0.375 0.734375 -1.0l1.328125 0.703125q-0.421875 1.03125 -1.265625 1.578125q-0.828125 0.53125 -2.015625 0.53125zm8.110901 0q-0.90625 0 -1.609375 -0.296875q-0.703125 -0.3125 -1.203125 -0.875q-0.484375 -0.5625 -0.75 -1.375q-0.265625 -0.8125 -0.265625 -1.796875q0 -1.0 0.265625 -1.796875q0.265625 -0.8125 0.75 -1.375q0.5 -0.578125 1.203125 -0.875q0.703125 -0.3125 1.609375 -0.3125q0.90625 0 1.59375 0.328125q0.703125 0.3125 1.171875 0.890625q0.46875 0.5625 0.6875 1.3125q0.234375 0.75 0.234375 1.609375l0 0.65625l-5.703125 0l0 0.28125q0 0.953125 0.5625 1.578125q0.5625 0.609375 1.625 0.609375q0.765625 0 1.296875 -0.328125q0.53125 -0.34375 0.890625 -0.921875l1.03125 1.015625q-0.46875 0.765625 -1.34375 1.21875q-0.875 0.453125 -2.046875 0.453125zm0 -7.34375q-0.453125 0 -0.828125 0.171875q-0.375 0.15625 -0.640625 0.453125q-0.265625 0.28125 -0.40625 0.6875q-0.140625 0.390625 -0.140625 0.875l0 0.109375l3.875 0l0 -0.171875q0 -0.953125 -0.5 -1.53125q-0.5 -0.59375 -1.359375 -0.59375zm8.271011 7.34375q-1.1875 0 -1.984375 -0.40625q-0.796875 -0.421875 -1.390625 -1.15625l1.109375 -1.03125q0.46875 0.5625 1.03125 0.875q0.578125 0.3125 1.328125 0.3125q0.765625 0 1.140625 -0.296875q0.375 -0.296875 0.375 -0.828125q0 -0.390625 -0.265625 -0.671875q-0.265625 -0.28125 -0.921875 -0.359375l-0.765625 -0.09375q-1.28125 -0.15625 -2.015625 -0.734375q-0.71875 -0.59375 -0.71875 -1.75q0 -0.609375 0.21875 -1.078125q0.234375 -0.46875 0.640625 -0.796875q0.40625 -0.328125 0.96875 -0.5q0.578125 -0.1875 1.265625 -0.1875q1.125 0 1.828125 0.359375q0.71875 0.34375 1.28125 0.96875l-1.078125 1.03125q-0.328125 -0.390625 -0.84375 -0.671875q-0.515625 -0.28125 -1.1875 -0.28125q-0.71875 0 -1.0625 0.296875q-0.34375 0.28125 -0.34375 0.75q0 0.484375 0.296875 0.71875q0.3125 0.234375 0.984375 0.359375l0.765625 0.09375q1.375 0.203125 2.0 0.8125q0.640625 0.59375 0.640625 1.59375q0 0.609375 -0.234375 1.109375q-0.234375 0.484375 -0.671875 0.84375q-0.421875 0.34375 -1.03125 0.53125q-0.609375 0.1875 -1.359375 0.1875zm7.808029 0q-1.1875 0 -1.984375 -0.40625q-0.796875 -0.421875 -1.390625 -1.15625l1.109375 -1.03125q0.46875 0.5625 1.03125 0.875q0.578125 0.3125 1.328125 0.3125q0.765625 0 1.140625 -0.296875q0.375 -0.296875 0.375 -0.828125q0 -0.390625 -0.265625 -0.671875q-0.265625 -0.28125 -0.921875 -0.359375l-0.765625 -0.09375q-1.28125 -0.15625 -2.015625 -0.734375q-0.71875 -0.59375 -0.71875 -1.75q0 -0.609375 0.21875 -1.078125q0.234375 -0.46875 0.640625 -0.796875q0.40625 -0.328125 0.96875 -0.5q0.578125 -0.1875 1.265625 -0.1875q1.125 0 1.828125 0.359375q0.71875 0.34375 1.28125 0.96875l-1.078125 1.03125q-0.328125 -0.390625 -0.84375 -0.671875q-0.515625 -0.28125 -1.1875 -0.28125q-0.71875 0 -1.0625 0.296875q-0.34375 0.28125 -0.34375 0.75q0 0.484375 0.296875 0.71875q0.3125 0.234375 0.984375 0.359375l0.765625 0.09375q1.375 0.203125 2.0 0.8125q0.640625 0.59375 0.640625 1.59375q0 0.609375 -0.234375 1.109375q-0.234375 0.484375 -0.671875 0.84375q-0.421875 0.34375 -1.03125 0.53125q-0.609375 0.1875 -1.359375 0.1875z" fill-rule="nonzero"/><path fill="#000000" fill-opacity="0.0" d="m52.53281 269.91864l171.1811 0l0 28.59842l-171.1811 0z" fill-rule="evenodd"/><path fill="#000000" d="m71.45468 281.53098l-0.078125 0l-0.890625 1.8125l-2.4375 4.46875l-2.453125 -4.46875l-0.875 -1.8125l-0.078125 0l0 8.546875l-1.7343712 0l0 -11.171875l2.1406212 0l3.0 5.6875l0.09375 0l2.984375 -5.6875l2.046875 0l0 11.171875l-1.71875 0l0 -8.546875zm10.445908 8.546875q-0.6875 0 -1.0625 -0.390625q-0.359375 -0.390625 -0.4375 -1.0l-0.078125 0q-0.25 0.78125 -0.890625 1.1875q-0.640625 0.390625 -1.546875 0.390625q-1.296875 0 -2.0 -0.671875q-0.6875 -0.671875 -0.6875 -1.796875q0 -1.25 0.90625 -1.875q0.90625 -0.625 2.640625 -0.625l1.515625 0l0 -0.703125q0 -0.765625 -0.421875 -1.1875q-0.421875 -0.421875 -1.296875 -0.421875q-0.734375 0 -1.203125 0.328125q-0.46875 0.3125 -0.78125 0.8125l-1.046875 -0.9375q0.421875 -0.703125 1.171875 -1.15625q0.75 -0.46875 1.96875 -0.46875q1.625 0 2.484375 0.75q0.859375 0.75 0.859375 2.171875l0 4.171875l0.875 0l0 1.421875l-0.96875 0zm-3.515625 -1.140625q0.8125 0 1.34375 -0.359375q0.53125 -0.359375 0.53125 -0.96875l0 -1.1875l-1.484375 0q-1.796875 0 -1.796875 1.109375l0 0.296875q0 0.546875 0.375 0.828125q0.375 0.28125 1.03125 0.28125zm6.205887 1.140625l0 -8.3125l1.734375 0l0 1.59375l0.09375 0q0.171875 -0.640625 0.734375 -1.109375q0.5625 -0.484375 1.546875 -0.484375l0.46875 0l0 1.671875l-0.6875 0q-1.046875 0 -1.609375 0.34375q-0.546875 0.328125 -0.546875 0.984375l0 5.3125l-1.734375 0zm6.128006 -11.84375l1.734375 0l0 7.265625l0.09375 0l1.140625 -1.484375l2.0 -2.25l2.03125 0l-2.90625 3.203125l3.265625 5.109375l-2.078125 0l-2.390625 -3.96875l-1.15625 1.25l0 2.71875l-1.734375 0l0 -11.84375zm11.681641 12.03125q-0.90625 0 -1.609375 -0.296875q-0.703125 -0.3125 -1.203125 -0.875q-0.484375 -0.5625 -0.75 -1.375q-0.265625 -0.8125 -0.265625 -1.796875q0 -1.0 0.265625 -1.796875q0.265625 -0.8125 0.75 -1.375q0.5 -0.578125 1.203125 -0.875q0.703125 -0.3125 1.609375 -0.3125q0.90625 0 1.59375 0.328125q0.703125 0.3125 1.171875 0.890625q0.46875 0.5625 0.6875 1.3125q0.234375 0.75 0.234375 1.609375l0 0.65625l-5.703125 0l0 0.28125q0 0.953125 0.5625 1.578125q0.5625 0.609375 1.625 0.609375q0.765625 0 1.296875 -0.328125q0.53125 -0.34375 0.890625 -0.921875l1.03125 1.015625q-0.46875 0.765625 -1.34375 1.21875q-0.875 0.453125 -2.046875 0.453125zm0 -7.34375q-0.453125 0 -0.828125 0.171875q-0.375 0.15625 -0.640625 0.453125q-0.265625 0.28125 -0.40625 0.6875q-0.140625 0.390625 -0.140625 0.875l0 0.109375l3.875 0l0 -0.171875q0 -0.953125 -0.5 -1.53125q-0.5 -0.59375 -1.359375 -0.59375zm7.9272614 7.15625q-0.90625 0 -1.375 -0.46875q-0.453125 -0.46875 -0.453125 -1.34375l0 -5.078125l-1.296875 0l0 -1.421875l0.703125 0q0.421875 0 0.59375 -0.1875q0.171875 -0.203125 0.171875 -0.640625l0 -1.453125l1.5625 0l0 2.28125l1.75 0l0 1.421875l-1.75 0l0 5.46875l1.625 0l0 1.421875l-1.53125 0zm4.4181366 -9.8125q-0.546875 0 -0.796875 -0.25q-0.234375 -0.25 -0.234375 -0.65625l0 -0.265625q0 -0.40625 0.234375 -0.65625q0.25 -0.265625 0.796875 -0.265625q0.546875 0 0.78125 0.265625q0.25 0.25 0.25 0.65625l0 0.265625q0 0.40625 -0.25 0.65625q-0.234375 0.25 -0.78125 0.25zm-0.875 1.5l1.734375 0l0 8.3125l-1.734375 0l0 -8.3125zm4.2400055 8.3125l0 -8.3125l1.734375 0l0 1.375l0.09375 0q0.265625 -0.671875 0.8125 -1.125q0.5625 -0.453125 1.515625 -0.453125q1.28125 0 1.984375 0.84375q0.71875 0.84375 0.71875 2.390625l0 5.28125l-1.734375 0l0 -5.0625q0 -1.953125 -1.578125 -1.953125q-0.328125 0 -0.65625 0.09375q-0.328125 0.09375 -0.59375 0.265625q-0.25 0.171875 -0.40625 0.453125q-0.15625 0.265625 -0.15625 0.640625l0 5.5625l-1.734375 0zm16.576889 0.78125q0 1.296875 -1.0 1.953125q-0.984375 0.65625 -3.234375 0.65625q-1.015625 0 -1.734375 -0.140625q-0.703125 -0.125 -1.171875 -0.390625q-0.453125 -0.25 -0.65625 -0.625q-0.203125 -0.359375 -0.203125 -0.84375q0 -0.6875 0.375 -1.078125q0.375 -0.375 1.046875 -0.515625l0 -0.1875q-0.9375 -0.296875 -0.9375 -1.265625q0 -0.640625 0.421875 -0.984375q0.4375 -0.34375 1.046875 -0.5l0 -0.0625q-0.734375 -0.34375 -1.140625 -0.96875q-0.390625 -0.640625 -0.390625 -1.484375q0 -1.28125 0.859375 -2.0625q0.859375 -0.796875 2.453125 -0.796875q0.890625 0 1.515625 0.265625l0 -0.234375q0 -0.5625 0.25 -0.859375q0.265625 -0.3125 0.828125 -0.3125l1.28125 0l0 1.40625l-1.6875 0l0 0.328125q0.5625 0.375 0.859375 0.953125q0.296875 0.578125 0.296875 1.3125q0 1.25 -0.859375 2.03125q-0.859375 0.78125 -2.46875 0.78125q-0.59375 0 -1.078125 -0.125q-0.328125 0.109375 -0.5625 0.3125q-0.234375 0.1875 -0.234375 0.515625q0 0.328125 0.296875 0.484375q0.3125 0.140625 0.859375 0.140625l2.046875 0q1.546875 0 2.234375 0.625q0.6875 0.609375 0.6875 1.671875zm-1.640625 0.1875q0 -0.421875 -0.328125 -0.6875q-0.328125 -0.25 -1.1875 -0.25l-2.8125 0q-0.578125 0.34375 -0.578125 0.953125q0 0.515625 0.40625 0.828125q0.40625 0.3125 1.390625 0.3125l1.078125 0q2.03125 0 2.03125 -1.15625zm-2.609375 -5.078125q0.78125 0 1.203125 -0.34375q0.421875 -0.34375 0.421875 -1.0625l0 -0.328125q0 -0.71875 -0.421875 -1.0625q-0.421875 -0.34375 -1.203125 -0.34375q-0.765625 0 -1.1875 0.34375q-0.421875 0.34375 -0.421875 1.0625l0 0.328125q0 0.71875 0.421875 1.0625q0.421875 0.34375 1.1875 0.34375zm15.899261 2.96875q-0.21875 0.21875 -0.515625 0.453125q-0.28125 0.21875 -0.6875 0.421875q-0.390625 0.203125 -0.890625 0.328125q-0.5 0.125 -1.140625 0.125q-0.859375 0 -1.53125 -0.234375q-0.671875 -0.234375 -1.140625 -0.65625q-0.453125 -0.421875 -0.6875 -0.984375q-0.21875 -0.5625 -0.21875 -1.21875q0 -0.59375 0.171875 -1.0625q0.1875 -0.484375 0.5 -0.859375q0.3125 -0.375 0.71875 -0.671875q0.40625 -0.296875 0.875 -0.546875q-0.53125 -0.5625 -0.90625 -1.21875q-0.359375 -0.65625 -0.359375 -1.40625q0 -0.5625 0.21875 -1.046875q0.21875 -0.5 0.609375 -0.859375q0.40625 -0.359375 0.96875 -0.5625q0.578125 -0.21875 1.265625 -0.21875q0.640625 0 1.171875 0.171875q0.546875 0.171875 0.9375 0.5q0.40625 0.3125 0.625 0.78125q0.21875 0.453125 0.21875 1.015625q0 0.53125 -0.203125 0.984375q-0.1875 0.4375 -0.53125 0.796875q-0.328125 0.359375 -0.765625 0.671875q-0.4375 0.3125 -0.9375 0.59375l2.1875 2.359375q0.21875 -0.578125 0.34375 -1.21875q0.125 -0.640625 0.15625 -1.296875l2.390625 0l0 1.46875l-1.09375 0q-0.234375 1.21875 -0.734375 2.15625l2.203125 2.375l-2.1875 0l-1.03125 -1.140625zm-2.75 -8.828125q-0.578125 0 -0.984375 0.34375q-0.390625 0.34375 -0.390625 0.90625l0 0.125q0 0.421875 0.25 0.84375q0.265625 0.40625 0.765625 0.953125q0.671875 -0.375 1.15625 -0.828125q0.484375 -0.453125 0.484375 -1.046875l0 -0.125q0 -0.5625 -0.359375 -0.859375q-0.359375 -0.3125 -0.921875 -0.3125zm-0.28125 8.671875q0.671875 0 1.1875 -0.21875q0.515625 -0.234375 0.890625 -0.625l-2.71875 -2.9375q-0.609375 0.34375 -0.984375 0.765625q-0.375 0.40625 -0.375 1.125l0 0.21875q0 0.765625 0.53125 1.21875q0.53125 0.453125 1.46875 0.453125zm15.009903 1.484375q-1.40625 0 -2.390625 -0.5q-0.984375 -0.515625 -1.6875 -1.390625l1.25 -1.15625q0.59375 0.71875 1.296875 1.09375q0.71875 0.359375 1.625 0.359375q1.078125 0 1.609375 -0.484375q0.546875 -0.484375 0.546875 -1.296875q0 -0.65625 -0.390625 -1.03125q-0.375 -0.390625 -1.34375 -0.578125l-1.0 -0.171875q-1.625 -0.3125 -2.453125 -1.078125q-0.8125 -0.765625 -0.8125 -2.109375q0 -0.734375 0.28125 -1.328125q0.28125 -0.609375 0.78125 -1.015625q0.515625 -0.40625 1.234375 -0.625q0.71875 -0.234375 1.609375 -0.234375q1.265625 0 2.1875 0.4375q0.9375 0.4375 1.59375 1.28125l-1.265625 1.109375q-0.4375 -0.5625 -1.0625 -0.890625q-0.609375 -0.34375 -1.546875 -0.34375q-0.953125 0 -1.484375 0.390625q-0.53125 0.390625 -0.53125 1.125q0 0.703125 0.421875 1.046875q0.4375 0.34375 1.359375 0.515625l0.984375 0.203125q1.6875 0.328125 2.453125 1.09375q0.78125 0.765625 0.78125 2.109375q0 0.78125 -0.28125 1.421875q-0.265625 0.640625 -0.78125 1.109375q-0.515625 0.453125 -1.265625 0.703125q-0.75 0.234375 -1.71875 0.234375zm12.193024 -0.1875q-0.6875 0 -1.0625 -0.390625q-0.359375 -0.390625 -0.4375 -1.0l-0.078125 0q-0.25 0.78125 -0.890625 1.1875q-0.640625 0.390625 -1.546875 0.390625q-1.296875 0 -2.0 -0.671875q-0.6875 -0.671875 -0.6875 -1.796875q0 -1.25 0.90625 -1.875q0.90625 -0.625 2.640625 -0.625l1.515625 0l0 -0.703125q0 -0.765625 -0.421875 -1.1875q-0.421875 -0.421875 -1.296875 -0.421875q-0.734375 0 -1.203125 0.328125q-0.46875 0.3125 -0.78125 0.8125l-1.046875 -0.9375q0.421875 -0.703125 1.171875 -1.15625q0.75 -0.46875 1.96875 -0.46875q1.625 0 2.484375 0.75q0.859375 0.75 0.859375 2.171875l0 4.171875l0.875 0l0 1.421875l-0.96875 0zm-3.515625 -1.140625q0.8125 0 1.34375 -0.359375q0.53125 -0.359375 0.53125 -0.96875l0 -1.1875l-1.484375 0q-1.796875 0 -1.796875 1.109375l0 0.296875q0 0.546875 0.375 0.828125q0.375 0.28125 1.03125 0.28125zm7.987137 1.140625q-0.90625 0 -1.34375 -0.453125q-0.4375 -0.453125 -0.4375 -1.28125l0 -10.109375l1.734375 0l0 10.421875l1.15625 0l0 1.421875l-1.109375 0zm6.044388 0.1875q-0.90625 0 -1.609375 -0.296875q-0.703125 -0.3125 -1.203125 -0.875q-0.484375 -0.5625 -0.75 -1.375q-0.265625 -0.8125 -0.265625 -1.796875q0 -1.0 0.265625 -1.796875q0.265625 -0.8125 0.75 -1.375q0.5 -0.578125 1.203125 -0.875q0.703125 -0.3125 1.609375 -0.3125q0.90625 0 1.59375 0.328125q0.703125 0.3125 1.171875 0.890625q0.46875 0.5625 0.6875 1.3125q0.234375 0.75 0.234375 1.609375l0 0.65625l-5.703125 0l0 0.28125q0 0.953125 0.5625 1.578125q0.5625 0.609375 1.625 0.609375q0.765625 0 1.296875 -0.328125q0.53125 -0.34375 0.890625 -0.921875l1.03125 1.015625q-0.46875 0.765625 -1.34375 1.21875q-0.875 0.453125 -2.046875 0.453125zm0 -7.34375q-0.453125 0 -0.828125 0.171875q-0.375 0.15625 -0.640625 0.453125q-0.265625 0.28125 -0.40625 0.6875q-0.140625 0.390625 -0.140625 0.875l0 0.109375l3.875 0l0 -0.171875q0 -0.953125 -0.5 -1.53125q-0.5 -0.59375 -1.359375 -0.59375zm8.271011 7.34375q-1.1875 0 -1.984375 -0.40625q-0.796875 -0.421875 -1.390625 -1.15625l1.109375 -1.03125q0.46875 0.5625 1.03125 0.875q0.578125 0.3125 1.328125 0.3125q0.765625 0 1.140625 -0.296875q0.375 -0.296875 0.375 -0.828125q0 -0.390625 -0.265625 -0.671875q-0.265625 -0.28125 -0.921875 -0.359375l-0.765625 -0.09375q-1.28125 -0.15625 -2.015625 -0.734375q-0.71875 -0.59375 -0.71875 -1.75q0 -0.609375 0.21875 -1.078125q0.234375 -0.46875 0.640625 -0.796875q0.40625 -0.328125 0.96875 -0.5q0.578125 -0.1875 1.265625 -0.1875q1.125 0 1.828125 0.359375q0.71875 0.34375 1.28125 0.96875l-1.078125 1.03125q-0.328125 -0.390625 -0.84375 -0.671875q-0.515625 -0.28125 -1.1875 -0.28125q-0.71875 0 -1.0625 0.296875q-0.34375 0.28125 -0.34375 0.75q0 0.484375 0.296875 0.71875q0.3125 0.234375 0.984375 0.359375l0.765625 0.09375q1.375 0.203125 2.0 0.8125q0.640625 0.59375 0.640625 1.59375q0 0.609375 -0.234375 1.109375q-0.234375 0.484375 -0.671875 0.84375q-0.421875 0.34375 -1.03125 0.53125q-0.609375 0.1875 -1.359375 0.1875z" fill-rule="nonzero"/><path fill="#000000" fill-opacity="0.0" d="m52.53281 303.32547l171.1811 0l0 28.59842l-171.1811 0z" fill-rule="evenodd"/><path fill="#000000" d="m62.90781 312.3128l3.9531212 0q1.078125 0 1.9375 0.359375q0.875 0.34375 1.484375 1.046875q0.625 0.6875 0.953125 1.75q0.34375 1.046875 0.34375 2.4375q0 1.390625 -0.34375 2.4375q-0.328125 1.046875 -0.953125 1.75q-0.609375 0.6875 -1.484375 1.046875q-0.859375 0.34375 -1.9375 0.34375l-3.9531212 0l0 -11.171875zm3.9531212 9.578125q1.25 0 2.015625 -0.78125q0.765625 -0.796875 0.765625 -2.3125l0 -1.796875q0 -1.515625 -0.765625 -2.296875q-0.765625 -0.78125 -2.015625 -0.78125l-2.140625 0l0 7.96875l2.140625 0zm10.115524 1.78125q-0.90625 0 -1.609375 -0.296875q-0.703125 -0.3125 -1.203125 -0.875q-0.484375 -0.5625 -0.75 -1.375q-0.265625 -0.8125 -0.265625 -1.796875q0 -1.0 0.265625 -1.796875q0.265625 -0.8125 0.75 -1.375q0.5 -0.578125 1.203125 -0.875q0.703125 -0.3125 1.609375 -0.3125q0.90625 0 1.59375 0.328125q0.703125 0.3125 1.171875 0.890625q0.46875 0.5625 0.6875 1.3125q0.234375 0.75 0.234375 1.609375l0 0.65625l-5.703125 0l0 0.28125q0 0.953125 0.5625 1.578125q0.5625 0.609375 1.625 0.609375q0.765625 0 1.296875 -0.328125q0.53125 -0.34375 0.890625 -0.921875l1.03125 1.015625q-0.46875 0.765625 -1.34375 1.21875q-0.875 0.453125 -2.046875 0.453125zm0 -7.34375q-0.453125 0 -0.828125 0.171875q-0.375 0.15625 -0.640625 0.453125q-0.265625 0.28125 -0.40625 0.6875q-0.140625 0.390625 -0.140625 0.875l0 0.109375l3.875 0l0 -0.171875q0 -0.953125 -0.5 -1.53125q-0.5 -0.59375 -1.359375 -0.59375zm7.298889 7.15625l-2.84375 -8.3125l1.734375 0l1.265625 3.78125l0.84375 2.921875l0.09375 0l0.859375 -2.921875l1.28125 -3.78125l1.671875 0l-2.859375 8.3125l-2.046875 0zm9.517136 0.1875q-0.90625 0 -1.609375 -0.296875q-0.703125 -0.3125 -1.203125 -0.875q-0.484375 -0.5625 -0.75 -1.375q-0.265625 -0.8125 -0.265625 -1.796875q0 -1.0 0.265625 -1.796875q0.265625 -0.8125 0.75 -1.375q0.5 -0.578125 1.203125 -0.875q0.703125 -0.3125 1.609375 -0.3125q0.90625 0 1.59375 0.328125q0.703125 0.3125 1.171875 0.890625q0.46875 0.5625 0.6875 1.3125q0.234375 0.75 0.234375 1.609375l0 0.65625l-5.703125 0l0 0.28125q0 0.953125 0.5625 1.578125q0.5625 0.609375 1.625 0.609375q0.765625 0 1.296875 -0.328125q0.53125 -0.34375 0.890625 -0.921875l1.03125 1.015625q-0.46875 0.765625 -1.34375 1.21875q-0.875 0.453125 -2.046875 0.453125zm0 -7.34375q-0.453125 0 -0.828125 0.171875q-0.375 0.15625 -0.640625 0.453125q-0.265625 0.28125 -0.40625 0.6875q-0.140625 0.390625 -0.140625 0.875l0 0.109375l3.875 0l0 -0.171875q0 -0.953125 -0.5 -1.53125q-0.5 -0.59375 -1.359375 -0.59375zm7.4116364 7.15625q-0.90625 0 -1.34375 -0.453125q-0.4375 -0.453125 -0.4375 -1.28125l0 -10.109375l1.734375 0l0 10.421875l1.15625 0l0 1.421875l-1.109375 0zm6.044388 0.1875q-0.875 0 -1.59375 -0.296875q-0.703125 -0.3125 -1.203125 -0.875q-0.484375 -0.5625 -0.765625 -1.375q-0.265625 -0.8125 -0.265625 -1.796875q0 -1.0 0.265625 -1.796875q0.28125 -0.8125 0.765625 -1.375q0.5 -0.578125 1.203125 -0.875q0.71875 -0.3125 1.59375 -0.3125q0.859375 0 1.5625 0.3125q0.71875 0.296875 1.21875 0.875q0.5 0.5625 0.765625 1.375q0.28125 0.796875 0.28125 1.796875q0 0.984375 -0.28125 1.796875q-0.265625 0.8125 -0.765625 1.375q-0.5 0.5625 -1.21875 0.875q-0.703125 0.296875 -1.5625 0.296875zm0 -1.4375q0.890625 0 1.4375 -0.546875q0.546875 -0.5625 0.546875 -1.65625l0 -1.40625q0 -1.109375 -0.546875 -1.65625q-0.546875 -0.5625 -1.4375 -0.5625q-0.90625 0 -1.453125 0.5625q-0.53125 0.546875 -0.53125 1.65625l0 1.40625q0 1.09375 0.53125 1.65625q0.546875 0.546875 1.453125 0.546875zm5.7583923 -7.0625l1.734375 0l0 1.375l0.09375 0q0.265625 -0.765625 0.875 -1.171875q0.625 -0.40625 1.453125 -0.40625q1.578125 0 2.4375 1.15625q0.875 1.140625 0.875 3.203125q0 2.0625 -0.875 3.203125q-0.859375 1.140625 -2.4375 1.140625q-0.828125 0 -1.453125 -0.40625q-0.609375 -0.421875 -0.875 -1.15625l-0.09375 0l0 4.578125l-1.734375 0l0 -11.515625zm3.625 7.0q0.921875 0 1.453125 -0.578125q0.546875 -0.59375 0.546875 -1.546875l0 -1.4375q0 -0.96875 -0.546875 -1.546875q-0.53125 -0.59375 -1.453125 -0.59375q-0.796875 0 -1.34375 0.40625q-0.546875 0.390625 -0.546875 1.03125l0 2.84375q0 0.640625 0.546875 1.03125q0.546875 0.390625 1.34375 0.390625zm5.8470154 1.3125l0 -8.3125l1.734375 0l0 1.375l0.09375 0q0.125 -0.328125 0.296875 -0.609375q0.1875 -0.296875 0.453125 -0.5q0.265625 -0.21875 0.625 -0.34375q0.359375 -0.125 0.84375 -0.125q0.84375 0 1.5 0.421875q0.65625 0.40625 0.96875 1.28125l0.046875 0q0.21875 -0.703125 0.859375 -1.203125q0.640625 -0.5 1.640625 -0.5q1.25 0 1.9375 0.84375q0.6875 0.84375 0.6875 2.390625l0 5.28125l-1.734375 0l0 -5.078125q0 -0.953125 -0.375 -1.4375q-0.359375 -0.5 -1.171875 -0.5q-0.328125 0 -0.640625 0.09375q-0.296875 0.09375 -0.53125 0.265625q-0.234375 0.171875 -0.375 0.453125q-0.140625 0.265625 -0.140625 0.625l0 5.578125l-1.75 0l0 -5.078125q0 -1.9375 -1.515625 -1.9375q-0.3125 0 -0.625 0.09375q-0.3125 0.09375 -0.5625 0.265625q-0.234375 0.171875 -0.390625 0.453125q-0.140625 0.265625 -0.140625 0.625l0 5.578125l-1.734375 0zm17.377655 0.1875q-0.90625 0 -1.609375 -0.296875q-0.703125 -0.3125 -1.203125 -0.875q-0.484375 -0.5625 -0.75 -1.375q-0.265625 -0.8125 -0.265625 -1.796875q0 -1.0 0.265625 -1.796875q0.265625 -0.8125 0.75 -1.375q0.5 -0.578125 1.203125 -0.875q0.703125 -0.3125 1.609375 -0.3125q0.90625 0 1.59375 0.328125q0.703125 0.3125 1.171875 0.890625q0.46875 0.5625 0.6875 1.3125q0.234375 0.75 0.234375 1.609375l0 0.65625l-5.703125 0l0 0.28125q0 0.953125 0.5625 1.578125q0.5625 0.609375 1.625 0.609375q0.765625 0 1.296875 -0.328125q0.53125 -0.34375 0.890625 -0.921875l1.03125 1.015625q-0.46875 0.765625 -1.34375 1.21875q-0.875 0.453125 -2.046875 0.453125zm0 -7.34375q-0.453125 0 -0.828125 0.171875q-0.375 0.15625 -0.640625 0.453125q-0.265625 0.28125 -0.40625 0.6875q-0.140625 0.390625 -0.140625 0.875l0 0.109375l3.875 0l0 -0.171875q0 -0.953125 -0.5 -1.53125q-0.5 -0.59375 -1.359375 -0.59375zm5.6303864 7.15625l0 -8.3125l1.734375 0l0 1.375l0.09375 0q0.265625 -0.671875 0.8125 -1.125q0.5625 -0.453125 1.515625 -0.453125q1.28125 0 1.984375 0.84375q0.71875 0.84375 0.71875 2.390625l0 5.28125l-1.734375 0l0 -5.0625q0 -1.953125 -1.578125 -1.953125q-0.328125 0 -0.65625 0.09375q-0.328125 0.09375 -0.59375 0.265625q-0.25 0.171875 -0.40625 0.453125q-0.15625 0.265625 -0.15625 0.640625l0 5.5625l-1.734375 0zm11.576889 0q-0.90625 0 -1.375 -0.46875q-0.453125 -0.46875 -0.453125 -1.34375l0 -5.078125l-1.296875 0l0 -1.421875l0.703125 0q0.421875 0 0.59375 -0.1875q0.171875 -0.203125 0.171875 -0.640625l0 -1.453125l1.5625 0l0 2.28125l1.75 0l0 1.421875l-1.75 0l0 5.46875l1.625 0l0 1.421875l-1.53125 0zm13.897263 -1.140625q-0.21875 0.21875 -0.515625 0.453125q-0.28125 0.21875 -0.6875 0.421875q-0.390625 0.203125 -0.890625 0.328125q-0.5 0.125 -1.140625 0.125q-0.859375 0 -1.53125 -0.234375q-0.671875 -0.234375 -1.140625 -0.65625q-0.453125 -0.421875 -0.6875 -0.984375q-0.21875 -0.5625 -0.21875 -1.21875q0 -0.59375 0.171875 -1.0625q0.1875 -0.484375 0.5 -0.859375q0.3125 -0.375 0.71875 -0.671875q0.40625 -0.296875 0.875 -0.546875q-0.53125 -0.5625 -0.90625 -1.21875q-0.359375 -0.65625 -0.359375 -1.40625q0 -0.5625 0.21875 -1.046875q0.21875 -0.5 0.609375 -0.859375q0.40625 -0.359375 0.96875 -0.5625q0.578125 -0.21875 1.265625 -0.21875q0.640625 0 1.171875 0.171875q0.546875 0.171875 0.9375 0.5q0.40625 0.3125 0.625 0.78125q0.21875 0.453125 0.21875 1.015625q0 0.53125 -0.203125 0.984375q-0.1875 0.4375 -0.53125 0.796875q-0.328125 0.359375 -0.765625 0.671875q-0.4375 0.3125 -0.9375 0.59375l2.1875 2.359375q0.21875 -0.578125 0.34375 -1.21875q0.125 -0.640625 0.15625 -1.296875l2.390625 0l0 1.46875l-1.09375 0q-0.234375 1.21875 -0.734375 2.15625l2.203125 2.375l-2.1875 0l-1.03125 -1.140625zm-2.75 -8.828125q-0.578125 0 -0.984375 0.34375q-0.390625 0.34375 -0.390625 0.90625l0 0.125q0 0.421875 0.25 0.84375q0.265625 0.40625 0.765625 0.953125q0.671875 -0.375 1.15625 -0.828125q0.484375 -0.453125 0.484375 -1.046875l0 -0.125q0 -0.5625 -0.359375 -0.859375q-0.359375 -0.3125 -0.921875 -0.3125zm-0.28125 8.671875q0.671875 0 1.1875 -0.21875q0.515625 -0.234375 0.890625 -0.625l-2.71875 -2.9375q-0.609375 0.34375 -0.984375 0.765625q-0.375 0.40625 -0.375 1.125l0 0.21875q0 0.765625 0.53125 1.21875q0.53125 0.453125 1.46875 0.453125zm15.994278 1.484375q-1.09375 0 -1.984375 -0.375q-0.890625 -0.375 -1.53125 -1.09375q-0.625 -0.734375 -0.96875 -1.8125q-0.34375 -1.078125 -0.34375 -2.484375q0 -1.40625 0.34375 -2.484375q0.34375 -1.09375 0.96875 -1.8125q0.640625 -0.734375 1.53125 -1.109375q0.890625 -0.375 1.984375 -0.375q1.078125 0 1.96875 0.375q0.890625 0.375 1.515625 1.109375q0.640625 0.71875 0.984375 1.8125q0.34375 1.078125 0.34375 2.484375q0 1.40625 -0.34375 2.484375q-0.34375 1.078125 -0.984375 1.8125q-0.625 0.71875 -1.515625 1.09375q-0.890625 0.375 -1.96875 0.375zm0 -1.609375q0.640625 0 1.171875 -0.21875q0.53125 -0.234375 0.90625 -0.65625q0.375 -0.421875 0.578125 -1.03125q0.21875 -0.609375 0.21875 -1.375l0 -1.765625q0 -0.765625 -0.21875 -1.375q-0.203125 -0.609375 -0.578125 -1.03125q-0.375 -0.421875 -0.90625 -0.640625q-0.53125 -0.234375 -1.171875 -0.234375q-0.65625 0 -1.1875 0.234375q-0.53125 0.21875 -0.90625 0.640625q-0.375 0.421875 -0.59375 1.03125q-0.203125 0.609375 -0.203125 1.375l0 1.765625q0 0.765625 0.203125 1.375q0.21875 0.609375 0.59375 1.03125q0.375 0.421875 0.90625 0.65625q0.53125 0.21875 1.1875 0.21875zm6.938904 -6.890625l1.734375 0l0 1.375l0.09375 0q0.265625 -0.765625 0.875 -1.171875q0.625 -0.40625 1.453125 -0.40625q1.578125 0 2.4375 1.15625q0.875 1.140625 0.875 3.203125q0 2.0625 -0.875 3.203125q-0.859375 1.140625 -2.4375 1.140625q-0.828125 0 -1.453125 -0.40625q-0.609375 -0.421875 -0.875 -1.15625l-0.09375 0l0 4.578125l-1.734375 0l0 -11.515625zm3.625 7.0q0.921875 0 1.453125 -0.578125q0.546875 -0.59375 0.546875 -1.546875l0 -1.4375q0 -0.96875 -0.546875 -1.546875q-0.53125 -0.59375 -1.453125 -0.59375q-0.796875 0 -1.34375 0.40625q-0.546875 0.390625 -0.546875 1.03125l0 2.84375q0 0.640625 0.546875 1.03125q0.546875 0.390625 1.34375 0.390625zm8.48764 1.5q-1.1875 0 -1.984375 -0.40625q-0.796875 -0.421875 -1.390625 -1.15625l1.109375 -1.03125q0.46875 0.5625 1.03125 0.875q0.578125 0.3125 1.328125 0.3125q0.765625 0 1.140625 -0.296875q0.375 -0.296875 0.375 -0.828125q0 -0.390625 -0.265625 -0.671875q-0.265625 -0.28125 -0.921875 -0.359375l-0.765625 -0.09375q-1.28125 -0.15625 -2.015625 -0.734375q-0.71875 -0.59375 -0.71875 -1.75q0 -0.609375 0.21875 -1.078125q0.234375 -0.46875 0.640625 -0.796875q0.40625 -0.328125 0.96875 -0.5q0.578125 -0.1875 1.265625 -0.1875q1.125 0 1.828125 0.359375q0.71875 0.34375 1.28125 0.96875l-1.078125 1.03125q-0.328125 -0.390625 -0.84375 -0.671875q-0.515625 -0.28125 -1.1875 -0.28125q-0.71875 0 -1.0625 0.296875q-0.34375 0.28125 -0.34375 0.75q0 0.484375 0.296875 0.71875q0.3125 0.234375 0.984375 0.359375l0.765625 0.09375q1.375 0.203125 2.0 0.8125q0.640625 0.59375 0.640625 1.59375q0 0.609375 -0.234375 1.109375q-0.234375 0.484375 -0.671875 0.84375q-0.421875 0.34375 -1.03125 0.53125q-0.609375 0.1875 -1.359375 0.1875z" fill-rule="nonzero"/><path fill="#000000" fill-opacity="0.0" d="m52.53281 336.73227l171.1811 0l0 28.59845l-171.1811 0z" fill-rule="evenodd"/><path fill="#000000" d="m62.90781 356.8915l0 -11.171875l4.796871 0q1.5625 0 2.40625 0.921875q0.84375 0.90625 0.84375 2.4375q0 1.546875 -0.84375 2.453125q-0.84375 0.90625 -2.40625 0.90625l-2.984375 0l0 4.453125l-1.8124962 0zm1.8124962 -6.03125l2.875 0q0.6875 0 1.0625 -0.359375q0.390625 -0.359375 0.390625 -1.03125l0 -0.765625q0 -0.671875 -0.390625 -1.03125q-0.375 -0.359375 -1.0625 -0.359375l-2.875 0l0 3.546875zm11.040131 6.21875q-0.90625 0 -1.609375 -0.296875q-0.703125 -0.3125 -1.203125 -0.875q-0.484375 -0.5625 -0.75 -1.375q-0.265625 -0.8125 -0.265625 -1.796875q0 -1.0 0.265625 -1.796875q0.265625 -0.8125 0.75 -1.375q0.5 -0.578125 1.203125 -0.875q0.703125 -0.3125 1.609375 -0.3125q0.90625 0 1.59375 0.328125q0.703125 0.3125 1.171875 0.890625q0.46875 0.5625 0.6875 1.3125q0.234375 0.75 0.234375 1.609375l0 0.65625l-5.703125 0l0 0.28125q0 0.953125 0.5625 1.578125q0.5625 0.609375 1.625 0.609375q0.765625 0 1.296875 -0.328125q0.53125 -0.34375 0.890625 -0.921875l1.03125 1.015625q-0.46875 0.765625 -1.34375 1.21875q-0.875 0.453125 -2.046875 0.453125zm0 -7.34375q-0.453125 0 -0.828125 0.171875q-0.375 0.15625 -0.640625 0.453125q-0.265625 0.28125 -0.40625 0.6875q-0.140625 0.390625 -0.140625 0.875l0 0.109375l3.875 0l0 -0.171875q0 -0.953125 -0.5 -1.53125q-0.5 -0.59375 -1.359375 -0.59375zm8.896011 7.34375q-0.875 0 -1.59375 -0.296875q-0.703125 -0.3125 -1.203125 -0.875q-0.484375 -0.5625 -0.765625 -1.375q-0.265625 -0.8125 -0.265625 -1.796875q0 -1.0 0.265625 -1.796875q0.28125 -0.8125 0.765625 -1.375q0.5 -0.578125 1.203125 -0.875q0.71875 -0.3125 1.59375 -0.3125q0.859375 0 1.5625 0.3125q0.71875 0.296875 1.21875 0.875q0.5 0.5625 0.765625 1.375q0.28125 0.796875 0.28125 1.796875q0 0.984375 -0.28125 1.796875q-0.265625 0.8125 -0.765625 1.375q-0.5 0.5625 -1.21875 0.875q-0.703125 0.296875 -1.5625 0.296875zm0 -1.4375q0.890625 0 1.4375 -0.546875q0.546875 -0.5625 0.546875 -1.65625l0 -1.40625q0 -1.109375 -0.546875 -1.65625q-0.546875 -0.5625 -1.4375 -0.5625q-0.90625 0 -1.453125 0.5625q-0.53125 0.546875 -0.53125 1.65625l0 1.40625q0 1.09375 0.53125 1.65625q0.546875 0.546875 1.453125 0.546875zm5.7583923 -7.0625l1.734375 0l0 1.375l0.09375 0q0.265625 -0.765625 0.875 -1.171875q0.625 -0.40625 1.453125 -0.40625q1.578125 0 2.4375 1.15625q0.875 1.140625 0.875 3.203125q0 2.0625 -0.875 3.203125q-0.859375 1.140625 -2.4375 1.140625q-0.828125 0 -1.453125 -0.40625q-0.609375 -0.421875 -0.875 -1.15625l-0.09375 0l0 4.578125l-1.734375 0l0 -11.515625zm3.625 7.0q0.921875 0 1.453125 -0.578125q0.546875 -0.59375 0.546875 -1.546875l0 -1.4375q0 -0.96875 -0.546875 -1.546875q-0.53125 -0.59375 -1.453125 -0.59375q-0.796875 0 -1.34375 0.40625q-0.546875 0.390625 -0.546875 1.03125l0 2.84375q0 0.640625 0.546875 1.03125q0.546875 0.390625 1.34375 0.390625zm7.6282654 1.3125q-0.90625 0 -1.34375 -0.453125q-0.4375 -0.453125 -0.4375 -1.28125l0 -10.109375l1.734375 0l0 10.421875l1.15625 0l0 1.421875l-1.109375 0zm6.044388 0.1875q-0.90625 0 -1.609375 -0.296875q-0.703125 -0.3125 -1.203125 -0.875q-0.484375 -0.5625 -0.75 -1.375q-0.265625 -0.8125 -0.265625 -1.796875q0 -1.0 0.265625 -1.796875q0.265625 -0.8125 0.75 -1.375q0.5 -0.578125 1.203125 -0.875q0.703125 -0.3125 1.609375 -0.3125q0.90625 0 1.59375 0.328125q0.703125 0.3125 1.171875 0.890625q0.46875 0.5625 0.6875 1.3125q0.234375 0.75 0.234375 1.609375l0 0.65625l-5.703125 0l0 0.28125q0 0.953125 0.5625 1.578125q0.5625 0.609375 1.625 0.609375q0.765625 0 1.296875 -0.328125q0.53125 -0.34375 0.890625 -0.921875l1.03125 1.015625q-0.46875 0.765625 -1.34375 1.21875q-0.875 0.453125 -2.046875 0.453125zm0 -7.34375q-0.453125 0 -0.828125 0.171875q-0.375 0.15625 -0.640625 0.453125q-0.265625 0.28125 -0.40625 0.6875q-0.140625 0.390625 -0.140625 0.875l0 0.109375l3.875 0l0 -0.171875q0 -0.953125 -0.5 -1.53125q-0.5 -0.59375 -1.359375 -0.59375zm15.984512 6.015625q-0.21875 0.21875 -0.515625 0.453125q-0.28125 0.21875 -0.6875 0.421875q-0.390625 0.203125 -0.890625 0.328125q-0.5 0.125 -1.140625 0.125q-0.859375 0 -1.53125 -0.234375q-0.671875 -0.234375 -1.140625 -0.65625q-0.453125 -0.421875 -0.6875 -0.984375q-0.21875 -0.5625 -0.21875 -1.21875q0 -0.59375 0.171875 -1.0625q0.1875 -0.484375 0.5 -0.859375q0.3125 -0.375 0.71875 -0.671875q0.40625 -0.296875 0.875 -0.546875q-0.53125 -0.5625 -0.90625 -1.21875q-0.359375 -0.65625 -0.359375 -1.40625q0 -0.5625 0.21875 -1.046875q0.21875 -0.5 0.609375 -0.859375q0.40625 -0.359375 0.96875 -0.5625q0.578125 -0.21875 1.265625 -0.21875q0.640625 0 1.171875 0.171875q0.546875 0.171875 0.9375 0.5q0.40625 0.3125 0.625 0.78125q0.21875 0.453125 0.21875 1.015625q0 0.53125 -0.203125 0.984375q-0.1875 0.4375 -0.53125 0.796875q-0.328125 0.359375 -0.765625 0.671875q-0.4375 0.3125 -0.9375 0.59375l2.1875 2.359375q0.21875 -0.578125 0.34375 -1.21875q0.125 -0.640625 0.15625 -1.296875l2.390625 0l0 1.46875l-1.09375 0q-0.234375 1.21875 -0.734375 2.15625l2.203125 2.375l-2.1875 0l-1.03125 -1.140625zm-2.75 -8.828125q-0.578125 0 -0.984375 0.34375q-0.390625 0.34375 -0.390625 0.90625l0 0.125q0 0.421875 0.25 0.84375q0.265625 0.40625 0.765625 0.953125q0.671875 -0.375 1.15625 -0.828125q0.484375 -0.453125 0.484375 -1.046875l0 -0.125q0 -0.5625 -0.359375 -0.859375q-0.359375 -0.3125 -0.921875 -0.3125zm-0.28125 8.671875q0.671875 0 1.1875 -0.21875q0.515625 -0.234375 0.890625 -0.625l-2.71875 -2.9375q-0.609375 0.34375 -0.984375 0.765625q-0.375 0.40625 -0.375 1.125l0 0.21875q0 0.765625 0.53125 1.21875q0.53125 0.453125 1.46875 0.453125zm15.009903 1.484375q-1.40625 0 -2.390625 -0.5q-0.984375 -0.515625 -1.6875 -1.390625l1.25 -1.15625q0.59375 0.71875 1.296875 1.09375q0.71875 0.359375 1.625 0.359375q1.078125 0 1.609375 -0.484375q0.546875 -0.484375 0.546875 -1.296875q0 -0.65625 -0.390625 -1.03125q-0.375 -0.390625 -1.34375 -0.578125l-1.0 -0.171875q-1.625 -0.3125 -2.453125 -1.078125q-0.8125 -0.765625 -0.8125 -2.109375q0 -0.734375 0.28125 -1.328125q0.28125 -0.609375 0.78125 -1.015625q0.515625 -0.40625 1.234375 -0.625q0.71875 -0.234375 1.609375 -0.234375q1.265625 0 2.1875 0.4375q0.9375 0.4375 1.59375 1.28125l-1.265625 1.109375q-0.4375 -0.5625 -1.0625 -0.890625q-0.609375 -0.34375 -1.546875 -0.34375q-0.953125 0 -1.484375 0.390625q-0.53125 0.390625 -0.53125 1.125q0 0.703125 0.421875 1.046875q0.4375 0.34375 1.359375 0.515625l0.984375 0.203125q1.6875 0.328125 2.453125 1.09375q0.78125 0.765625 0.78125 2.109375q0 0.78125 -0.28125 1.421875q-0.265625 0.640625 -0.78125 1.109375q-0.515625 0.453125 -1.265625 0.703125q-0.75 0.234375 -1.71875 0.234375zm11.208649 -8.5l1.671875 0l-3.5 9.953125q-0.140625 0.421875 -0.328125 0.71875q-0.1875 0.296875 -0.4375 0.484375q-0.25 0.1875 -0.609375 0.265625q-0.34375 0.09375 -0.8125 0.09375l-1.015625 0l0 -1.421875l1.40625 0l0.484375 -1.40625l-3.03125 -8.6875l1.75 0l1.65625 4.890625l0.484375 1.8125l0.078125 0l0.53125 -1.8125l1.671875 -4.890625zm5.6592712 8.5q-1.1875 0 -1.984375 -0.40625q-0.796875 -0.421875 -1.390625 -1.15625l1.109375 -1.03125q0.46875 0.5625 1.03125 0.875q0.578125 0.3125 1.328125 0.3125q0.765625 0 1.140625 -0.296875q0.375 -0.296875 0.375 -0.828125q0 -0.390625 -0.265625 -0.671875q-0.265625 -0.28125 -0.921875 -0.359375l-0.765625 -0.09375q-1.28125 -0.15625 -2.015625 -0.734375q-0.71875 -0.59375 -0.71875 -1.75q0 -0.609375 0.21875 -1.078125q0.234375 -0.46875 0.640625 -0.796875q0.40625 -0.328125 0.96875 -0.5q0.578125 -0.1875 1.265625 -0.1875q1.125 0 1.828125 0.359375q0.71875 0.34375 1.28125 0.96875l-1.078125 1.03125q-0.328125 -0.390625 -0.84375 -0.671875q-0.515625 -0.28125 -1.1875 -0.28125q-0.71875 0 -1.0625 0.296875q-0.34375 0.28125 -0.34375 0.75q0 0.484375 0.296875 0.71875q0.3125 0.234375 0.984375 0.359375l0.765625 0.09375q1.375 0.203125 2.0 0.8125q0.640625 0.59375 0.640625 1.59375q0 0.609375 -0.234375 1.109375q-0.234375 0.484375 -0.671875 0.84375q-0.421875 0.34375 -1.03125 0.53125q-0.609375 0.1875 -1.359375 0.1875zm7.4482727 -0.1875q-0.90625 0 -1.375 -0.46875q-0.453125 -0.46875 -0.453125 -1.34375l0 -5.078125l-1.296875 0l0 -1.421875l0.703125 0q0.421875 0 0.59375 -0.1875q0.171875 -0.203125 0.171875 -0.640625l0 -1.453125l1.5625 0l0 2.28125l1.75 0l0 1.421875l-1.75 0l0 5.46875l1.625 0l0 1.421875l-1.53125 0zm6.744766 0.1875q-0.90625 0 -1.609375 -0.296875q-0.703125 -0.3125 -1.203125 -0.875q-0.484375 -0.5625 -0.75 -1.375q-0.265625 -0.8125 -0.265625 -1.796875q0 -1.0 0.265625 -1.796875q0.265625 -0.8125 0.75 -1.375q0.5 -0.578125 1.203125 -0.875q0.703125 -0.3125 1.609375 -0.3125q0.90625 0 1.59375 0.328125q0.703125 0.3125 1.171875 0.890625q0.46875 0.5625 0.6875 1.3125q0.234375 0.75 0.234375 1.609375l0 0.65625l-5.703125 0l0 0.28125q0 0.953125 0.5625 1.578125q0.5625 0.609375 1.625 0.609375q0.765625 0 1.296875 -0.328125q0.53125 -0.34375 0.890625 -0.921875l1.03125 1.015625q-0.46875 0.765625 -1.34375 1.21875q-0.875 0.453125 -2.046875 0.453125zm0 -7.34375q-0.453125 0 -0.828125 0.171875q-0.375 0.15625 -0.640625 0.453125q-0.265625 0.28125 -0.40625 0.6875q-0.140625 0.390625 -0.140625 0.875l0 0.109375l3.875 0l0 -0.171875q0 -0.953125 -0.5 -1.53125q-0.5 -0.59375 -1.359375 -0.59375zm5.6303864 7.15625l0 -8.3125l1.734375 0l0 1.375l0.09375 0q0.125 -0.328125 0.296875 -0.609375q0.1875 -0.296875 0.453125 -0.5q0.265625 -0.21875 0.625 -0.34375q0.359375 -0.125 0.84375 -0.125q0.84375 0 1.5 0.421875q0.65625 0.40625 0.96875 1.28125l0.046875 0q0.21875 -0.703125 0.859375 -1.203125q0.640625 -0.5 1.640625 -0.5q1.25 0 1.9375 0.84375q0.6875 0.84375 0.6875 2.390625l0 5.28125l-1.734375 0l0 -5.078125q0 -0.953125 -0.375 -1.4375q-0.359375 -0.5 -1.171875 -0.5q-0.328125 0 -0.640625 0.09375q-0.296875 0.09375 -0.53125 0.265625q-0.234375 0.171875 -0.375 0.453125q-0.140625 0.265625 -0.140625 0.625l0 5.578125l-1.75 0l0 -5.078125q0 -1.9375 -1.515625 -1.9375q-0.3125 0 -0.625 0.09375q-0.3125 0.09375 -0.5625 0.265625q-0.234375 0.171875 -0.390625 0.453125q-0.140625 0.265625 -0.140625 0.625l0 5.578125l-1.734375 0zm16.752655 0.1875q-1.1875 0 -1.984375 -0.40625q-0.796875 -0.421875 -1.390625 -1.15625l1.109375 -1.03125q0.46875 0.5625 1.03125 0.875q0.578125 0.3125 1.328125 0.3125q0.765625 0 1.140625 -0.296875q0.375 -0.296875 0.375 -0.828125q0 -0.390625 -0.265625 -0.671875q-0.265625 -0.28125 -0.921875 -0.359375l-0.765625 -0.09375q-1.28125 -0.15625 -2.015625 -0.734375q-0.71875 -0.59375 -0.71875 -1.75q0 -0.609375 0.21875 -1.078125q0.234375 -0.46875 0.640625 -0.796875q0.40625 -0.328125 0.96875 -0.5q0.578125 -0.1875 1.265625 -0.1875q1.125 0 1.828125 0.359375q0.71875 0.34375 1.28125 0.96875l-1.078125 1.03125q-0.328125 -0.390625 -0.84375 -0.671875q-0.515625 -0.28125 -1.1875 -0.28125q-0.71875 0 -1.0625 0.296875q-0.34375 0.28125 -0.34375 0.75q0 0.484375 0.296875 0.71875q0.3125 0.234375 0.984375 0.359375l0.765625 0.09375q1.375 0.203125 2.0 0.8125q0.640625 0.59375 0.640625 1.59375q0 0.609375 -0.234375 1.109375q-0.234375 0.484375 -0.671875 0.84375q-0.421875 0.34375 -1.03125 0.53125q-0.609375 0.1875 -1.359375 0.1875z" fill-rule="nonzero"/><path fill="#000000" d="m360.95813 163.15245l141.48029 0l0 67.87401l-141.48029 0z" fill-rule="evenodd"/><path fill="#ffffff" d="m387.23615 204.00945l0 -13.015625l8.328125 0l0 1.859375l-6.21875 0l0 3.625l5.640625 0l0 1.859375l-5.640625 0l0 3.8125l6.21875 0l0 1.859375l-8.328125 0zm9.828766 0l3.40625 -4.90625l-3.3125 -4.796875l2.34375 0l2.1875 3.375l0.0625 0l2.234375 -3.375l2.15625 0l-3.3125 4.78125l3.375 4.921875l-2.359375 0l-2.234375 -3.53125l-0.046875 0l-2.34375 3.53125l-2.15625 0zm14.51712 0.21875q-1.046875 0 -1.875 -0.34375q-0.8125 -0.359375 -1.390625 -1.015625q-0.578125 -0.671875 -0.890625 -1.609375q-0.3125 -0.9375 -0.3125 -2.09375q0 -1.15625 0.3125 -2.09375q0.3125 -0.953125 0.890625 -1.609375q0.578125 -0.671875 1.390625 -1.015625q0.828125 -0.359375 1.875 -0.359375q1.0625 0 1.875 0.375q0.8125 0.375 1.34375 1.03125q0.546875 0.65625 0.8125 1.546875q0.28125 0.875 0.28125 1.875l0 0.765625l-6.671875 0l0 0.3125q0 1.125 0.65625 1.84375q0.671875 0.71875 1.90625 0.71875q0.890625 0 1.5 -0.390625q0.625 -0.390625 1.046875 -1.0625l1.203125 1.171875q-0.546875 0.890625 -1.578125 1.421875q-1.015625 0.53125 -2.375 0.53125zm0 -8.5625q-0.53125 0 -0.96875 0.1875q-0.4375 0.1875 -0.75 0.53125q-0.296875 0.328125 -0.46875 0.796875q-0.171875 0.46875 -0.171875 1.03125l0 0.125l4.515625 0l0 -0.1875q0 -1.125 -0.578125 -1.796875q-0.578125 -0.6875 -1.578125 -0.6875zm10.310364 8.5625q-1.046875 0 -1.875 -0.34375q-0.8125 -0.359375 -1.375 -1.015625q-0.546875 -0.671875 -0.859375 -1.609375q-0.296875 -0.9375 -0.296875 -2.09375q0 -1.15625 0.296875 -2.09375q0.3125 -0.953125 0.859375 -1.609375q0.5625 -0.671875 1.375 -1.015625q0.828125 -0.359375 1.875 -0.359375q1.453125 0 2.390625 0.65625q0.9375 0.640625 1.359375 1.734375l-1.671875 0.78125q-0.203125 -0.671875 -0.71875 -1.078125q-0.515625 -0.40625 -1.359375 -0.40625q-1.125 0 -1.6875 0.703125q-0.5625 0.703125 -0.5625 1.828125l0 1.734375q0 1.109375 0.5625 1.8125q0.5625 0.703125 1.6875 0.703125q0.890625 0 1.421875 -0.4375q0.53125 -0.4375 0.859375 -1.171875l1.546875 0.828125q-0.484375 1.1875 -1.453125 1.828125q-0.96875 0.625 -2.375 0.625zm11.639709 -1.828125l-0.078125 0q-0.125 0.359375 -0.34375 0.703125q-0.203125 0.328125 -0.53125 0.578125q-0.328125 0.25 -0.796875 0.390625q-0.453125 0.15625 -1.046875 0.15625q-1.515625 0 -2.34375 -0.96875q-0.828125 -0.96875 -0.828125 -2.78125l0 -6.171875l2.03125 0l0 5.921875q0 2.25 1.875 2.25q0.390625 0 0.765625 -0.09375q0.375 -0.109375 0.65625 -0.3125q0.296875 -0.203125 0.46875 -0.515625q0.171875 -0.328125 0.171875 -0.75l0 -6.5l2.03125 0l0 9.703125l-2.03125 0l0 -1.609375zm7.6331177 1.609375q-1.0625 0 -1.609375 -0.546875q-0.53125 -0.546875 -0.53125 -1.5625l0 -5.9375l-1.515625 0l0 -1.65625l0.828125 0q0.5 0 0.6875 -0.21875q0.203125 -0.234375 0.203125 -0.734375l0 -1.6875l1.828125 0l0 2.640625l2.03125 0l0 1.65625l-2.03125 0l0 6.390625l1.875 0l0 1.65625l-1.765625 0zm5.15329 -11.4375q-0.640625 0 -0.9375 -0.296875q-0.28125 -0.296875 -0.28125 -0.765625l0 -0.3125q0 -0.46875 0.28125 -0.765625q0.296875 -0.296875 0.9375 -0.296875q0.625 0 0.90625 0.296875q0.28125 0.296875 0.28125 0.765625l0 0.3125q0 0.46875 -0.28125 0.765625q-0.28125 0.296875 -0.90625 0.296875zm-1.03125 1.734375l2.03125 0l0 9.703125l-2.03125 0l0 -9.703125zm7.0532837 9.703125l-3.296875 -9.703125l2.015625 0l1.46875 4.421875l0.984375 3.390625l0.109375 0l1.0 -3.390625l1.5 -4.421875l1.953125 0l-3.34375 9.703125l-2.390625 0zm11.105804 0.21875q-1.046875 0 -1.875 -0.34375q-0.8125 -0.359375 -1.390625 -1.015625q-0.578125 -0.671875 -0.890625 -1.609375q-0.3125 -0.9375 -0.3125 -2.09375q0 -1.15625 0.3125 -2.09375q0.3125 -0.953125 0.890625 -1.609375q0.578125 -0.671875 1.390625 -1.015625q0.828125 -0.359375 1.875 -0.359375q1.0625 0 1.875 0.375q0.8125 0.375 1.34375 1.03125q0.546875 0.65625 0.8125 1.546875q0.28125 0.875 0.28125 1.875l0 0.765625l-6.671875 0l0 0.3125q0 1.125 0.65625 1.84375q0.671875 0.71875 1.90625 0.71875q0.890625 0 1.5 -0.390625q0.625 -0.390625 1.046875 -1.0625l1.203125 1.171875q-0.546875 0.890625 -1.578125 1.421875q-1.015625 0.53125 -2.375 0.53125zm0 -8.5625q-0.53125 0 -0.96875 0.1875q-0.4375 0.1875 -0.75 0.53125q-0.296875 0.328125 -0.46875 0.796875q-0.171875 0.46875 -0.171875 1.03125l0 0.125l4.515625 0l0 -0.1875q0 -1.125 -0.578125 -1.796875q-0.578125 -0.6875 -1.578125 -0.6875zm9.638489 8.5625q-1.375 0 -2.3125 -0.484375q-0.9375 -0.484375 -1.625 -1.34375l1.3125 -1.1875q0.53125 0.65625 1.1875 1.015625q0.671875 0.359375 1.546875 0.359375q0.90625 0 1.34375 -0.34375q0.4375 -0.34375 0.4375 -0.953125q0 -0.46875 -0.3125 -0.796875q-0.3125 -0.328125 -1.078125 -0.421875l-0.890625 -0.109375q-1.484375 -0.1875 -2.34375 -0.859375q-0.84375 -0.6875 -0.84375 -2.03125q0 -0.71875 0.25 -1.265625q0.265625 -0.546875 0.734375 -0.921875q0.484375 -0.390625 1.140625 -0.59375q0.671875 -0.203125 1.46875 -0.203125q1.3125 0 2.140625 0.40625q0.828125 0.40625 1.484375 1.140625l-1.25 1.1875q-0.375 -0.4375 -0.984375 -0.765625q-0.609375 -0.328125 -1.390625 -0.328125q-0.828125 0 -1.234375 0.34375q-0.40625 0.328125 -0.40625 0.859375q0 0.5625 0.359375 0.84375q0.359375 0.28125 1.140625 0.40625l0.890625 0.125q1.609375 0.234375 2.34375 0.9375q0.734375 0.703125 0.734375 1.875q0 0.703125 -0.28125 1.28125q-0.265625 0.5625 -0.765625 0.984375q-0.5 0.40625 -1.21875 0.625q-0.703125 0.21875 -1.578125 0.21875z" fill-rule="nonzero"/><path fill="#495057" d="m21.138859 217.40486l0 0c0 -7.897232 6.3878746 -14.29921 14.267715 -14.29921l0 0c3.7840347 0 7.413086 1.5065155 10.088802 4.188141c2.6757126 2.6816254 4.178917 6.31868 4.178917 10.111069l0 0c0 7.8972473 -6.3878746 14.29921 -14.267719 14.29921l0 0c-7.879841 0 -14.267715 -6.4019623 -14.267715 -14.29921z" fill-rule="evenodd"/><path fill="#000000" fill-opacity="0.0" d="m52.53281 203.10498l171.1811 0l0 28.598434l-171.1811 0z" fill-rule="evenodd"/><path fill="#000000" d="m62.90781 223.2642l0 -11.171875l4.796871 0q1.5625 0 2.40625 0.921875q0.84375 0.90625 0.84375 2.4375q0 1.546875 -0.84375 2.453125q-0.84375 0.90625 -2.40625 0.90625l-2.984375 0l0 4.453125l-1.8124962 0zm1.8124962 -6.03125l2.875 0q0.6875 0 1.0625 -0.359375q0.390625 -0.359375 0.390625 -1.03125l0 -0.765625q0 -0.671875 -0.390625 -1.03125q-0.375 -0.359375 -1.0625 -0.359375l-2.875 0l0 3.546875zm7.9345093 6.03125l0 -8.3125l1.734375 0l0 1.59375l0.09375 0q0.171875 -0.640625 0.734375 -1.109375q0.5625 -0.484375 1.546875 -0.484375l0.46875 0l0 1.671875l-0.6875 0q-1.046875 0 -1.609375 0.34375q-0.546875 0.328125 -0.546875 0.984375l0 5.3125l-1.734375 0zm9.313629 0.1875q-0.875 0 -1.59375 -0.296875q-0.703125 -0.3125 -1.203125 -0.875q-0.484375 -0.5625 -0.765625 -1.375q-0.265625 -0.8125 -0.265625 -1.796875q0 -1.0 0.265625 -1.796875q0.28125 -0.8125 0.765625 -1.375q0.5 -0.578125 1.203125 -0.875q0.71875 -0.3125 1.59375 -0.3125q0.859375 0 1.5625 0.3125q0.71875 0.296875 1.21875 0.875q0.5 0.5625 0.765625 1.375q0.28125 0.796875 0.28125 1.796875q0 0.984375 -0.28125 1.796875q-0.265625 0.8125 -0.765625 1.375q-0.5 0.5625 -1.21875 0.875q-0.703125 0.296875 -1.5625 0.296875zm0 -1.4375q0.890625 0 1.4375 -0.546875q0.546875 -0.5625 0.546875 -1.65625l0 -1.40625q0 -1.109375 -0.546875 -1.65625q-0.546875 -0.5625 -1.4375 -0.5625q-0.90625 0 -1.453125 0.5625q-0.53125 0.546875 -0.53125 1.65625l0 1.40625q0 1.09375 0.53125 1.65625q0.546875 0.546875 1.453125 0.546875zm10.992767 -0.125l-0.078125 0q-0.28125 0.734375 -0.90625 1.15625q-0.609375 0.40625 -1.4375 0.40625q-1.578125 0 -2.453125 -1.140625q-0.859375 -1.140625 -0.859375 -3.203125q0 -2.0625 0.859375 -3.203125q0.875 -1.15625 2.453125 -1.15625q0.828125 0 1.4375 0.40625q0.625 0.40625 0.90625 1.171875l0.078125 0l0 -4.90625l1.734375 0l0 11.84375l-1.734375 0l0 -1.375zm-1.890625 0.0625q0.796875 0 1.34375 -0.390625q0.546875 -0.390625 0.546875 -1.03125l0 -2.84375q0 -0.640625 -0.546875 -1.03125q-0.546875 -0.40625 -1.34375 -0.40625q-0.90625 0 -1.453125 0.59375q-0.546875 0.578125 -0.546875 1.546875l0 1.4375q0 0.953125 0.546875 1.546875q0.546875 0.578125 1.453125 0.578125zm11.159515 -0.0625l-0.0625 0q-0.109375 0.296875 -0.296875 0.59375q-0.171875 0.28125 -0.453125 0.5q-0.28125 0.21875 -0.671875 0.34375q-0.390625 0.125 -0.90625 0.125q-1.296875 0 -2.015625 -0.828125q-0.703125 -0.828125 -0.703125 -2.390625l0 -5.28125l1.734375 0l0 5.0625q0 1.9375 1.609375 1.9375q0.328125 0 0.640625 -0.078125q0.328125 -0.09375 0.578125 -0.265625q0.25 -0.1875 0.390625 -0.453125q0.15625 -0.28125 0.15625 -0.640625l0 -5.5625l1.75 0l0 8.3125l-1.75 0l0 -1.375zm7.467514 1.5625q-0.90625 0 -1.609375 -0.296875q-0.703125 -0.3125 -1.1875 -0.875q-0.46875 -0.5625 -0.734375 -1.375q-0.25 -0.8125 -0.25 -1.796875q0 -1.0 0.25 -1.796875q0.265625 -0.8125 0.734375 -1.375q0.484375 -0.578125 1.1875 -0.875q0.703125 -0.3125 1.609375 -0.3125q1.25 0 2.046875 0.5625q0.796875 0.5625 1.171875 1.484375l-1.453125 0.671875q-0.171875 -0.578125 -0.609375 -0.921875q-0.4375 -0.34375 -1.15625 -0.34375q-0.96875 0 -1.453125 0.609375q-0.484375 0.59375 -0.484375 1.5625l0 1.484375q0 0.953125 0.484375 1.5625q0.484375 0.59375 1.453125 0.59375q0.765625 0 1.21875 -0.375q0.453125 -0.375 0.734375 -1.0l1.328125 0.703125q-0.421875 1.03125 -1.265625 1.578125q-0.828125 0.53125 -2.015625 0.53125zm7.238144 -0.1875q-0.90625 0 -1.375 -0.46875q-0.453125 -0.46875 -0.453125 -1.34375l0 -5.078125l-1.296875 0l0 -1.421875l0.703125 0q0.421875 0 0.59375 -0.1875q0.171875 -0.203125 0.171875 -0.640625l0 -1.453125l1.5625 0l0 2.28125l1.75 0l0 1.421875l-1.75 0l0 5.46875l1.625 0l0 1.421875l-1.53125 0z" fill-rule="nonzero"/></g></svg>