<svg version="1.1" viewBox="0.0 0.0 685.4409448818898 372.4803149606299" fill="none" stroke="none" stroke-linecap="square" stroke-miterlimit="10" xmlns:xlink="http://www.w3.org/1999/xlink" xmlns="http://www.w3.org/2000/svg"><clipPath id="p.0"><path d="m0 0l685.4409 0l0 372.48032l-685.4409 0l0 -372.48032z" clip-rule="nonzero"/></clipPath><g clip-path="url(#p.0)"><path fill="#000000" fill-opacity="0.0" d="m0 0l685.4409 0l0 372.48032l-685.4409 0z" fill-rule="evenodd"/><path fill="#f2f5f5" d="m-3.6036744E-4 5.128609E-4l685.68195 0l0 373.39465l-685.68195 0z" fill-rule="evenodd"/><path fill="#000000" d="m274.96207 22.316488l141.4674 0l0 67.859276l-141.4674 0z" fill-rule="evenodd"/><path fill="#ffffff" d="m301.23364 63.166122l0 -13.015625l8.328125 0l0 1.859375l-6.21875 0l0 3.625l5.640625 0l0 1.859375l-5.640625 0l0 3.8125l6.21875 0l0 1.859375l-8.328125 0zm9.828766 0l3.40625 -4.90625l-3.3125 -4.796875l2.34375 0l2.1875 3.375l0.0625 0l2.234375 -3.375l2.15625 0l-3.3125 4.78125l3.375 4.921875l-2.359375 0l-2.234375 -3.53125l-0.046875 0l-2.34375 3.53125l-2.15625 0zm14.51712 0.21875q-1.046875 0 -1.875 -0.34375q-0.8125 -0.359375 -1.390625 -1.015625q-0.578125 -0.671875 -0.890625 -1.609375q-0.3125 -0.9375 -0.3125 -2.09375q0 -1.15625 0.3125 -2.09375q0.3125 -0.953125 0.890625 -1.609375q0.578125 -0.671875 1.390625 -1.015625q0.828125 -0.359375 1.875 -0.359375q1.0625 0 1.875 0.375q0.8125 0.375 1.34375 1.03125q0.546875 0.65625 0.8125 1.546875q0.28125 0.875 0.28125 1.875l0 0.765625l-6.671875 0l0 0.3125q0 1.125 0.65625 1.84375q0.671875 0.71875 1.90625 0.71875q0.890625 0 1.5 -0.390625q0.625 -0.390625 1.046875 -1.0625l1.203125 1.171875q-0.546875 0.890625 -1.578125 1.421875q-1.015625 0.53125 -2.375 0.53125zm0 -8.5625q-0.53125 0 -0.96875 0.1875q-0.4375 0.1875 -0.75 0.53125q-0.296875 0.328125 -0.46875 0.796875q-0.171875 0.46875 -0.171875 1.03125l0 0.125l4.515625 0l0 -0.1875q0 -1.125 -0.578125 -1.796875q-0.578125 -0.6875 -1.578125 -0.6875zm10.310364 8.5625q-1.046875 0 -1.875 -0.34375q-0.8125 -0.359375 -1.375 -1.015625q-0.546875 -0.671875 -0.859375 -1.609375q-0.296875 -0.9375 -0.296875 -2.09375q0 -1.15625 0.296875 -2.09375q0.3125 -0.953125 0.859375 -1.609375q0.5625 -0.671875 1.375 -1.015625q0.828125 -0.359375 1.875 -0.359375q1.453125 0 2.390625 0.65625q0.9375 0.640625 1.359375 1.734375l-1.671875 0.78125q-0.203125 -0.671875 -0.71875 -1.078125q-0.515625 -0.40625 -1.359375 -0.40625q-1.125 0 -1.6875 0.703125q-0.5625 0.703125 -0.5625 1.828125l0 1.734375q0 1.109375 0.5625 1.8125q0.5625 0.703125 1.6875 0.703125q0.890625 0 1.421875 -0.4375q0.53125 -0.4375 0.859375 -1.171875l1.546875 0.828125q-0.484375 1.1875 -1.453125 1.828125q-0.96875 0.625 -2.375 0.625zm11.639709 -1.828125l-0.078125 0q-0.125 0.359375 -0.34375 0.703125q-0.203125 0.328125 -0.53125 0.578125q-0.328125 0.25 -0.796875 0.390625q-0.453125 0.15625 -1.046875 0.15625q-1.515625 0 -2.34375 -0.96875q-0.828125 -0.96875 -0.828125 -2.78125l0 -6.171875l2.03125 0l0 5.921875q0 2.25 1.875 2.25q0.390625 0 0.765625 -0.09375q0.375 -0.109375 0.65625 -0.3125q0.296875 -0.203125 0.46875 -0.515625q0.171875 -0.328125 0.171875 -0.75l0 -6.5l2.03125 0l0 9.703125l-2.03125 0l0 -1.609375zm7.6331177 1.609375q-1.0625 0 -1.609375 -0.546875q-0.53125 -0.546875 -0.53125 -1.5625l0 -5.9375l-1.515625 0l0 -1.65625l0.828125 0q0.5 0 0.6875 -0.21875q0.203125 -0.234375 0.203125 -0.734375l0 -1.6875l1.828125 0l0 2.640625l2.03125 0l0 1.65625l-2.03125 0l0 6.390625l1.875 0l0 1.65625l-1.765625 0zm5.15329 -11.4375q-0.640625 0 -0.9375 -0.296875q-0.28125 -0.296875 -0.28125 -0.765625l0 -0.3125q0 -0.46875 0.28125 -0.765625q0.296875 -0.296875 0.9375 -0.296875q0.625 0 0.90625 0.296875q0.28125 0.296875 0.28125 0.765625l0 0.3125q0 0.46875 -0.28125 0.765625q-0.28125 0.296875 -0.90625 0.296875zm-1.03125 1.734375l2.03125 0l0 9.703125l-2.03125 0l0 -9.703125zm7.0532837 9.703125l-3.296875 -9.703125l2.015625 0l1.46875 4.421875l0.984375 3.390625l0.109375 0l1.0 -3.390625l1.5 -4.421875l1.953125 0l-3.34375 9.703125l-2.390625 0zm11.105804 0.21875q-1.046875 0 -1.875 -0.34375q-0.8125 -0.359375 -1.390625 -1.015625q-0.578125 -0.671875 -0.890625 -1.609375q-0.3125 -0.9375 -0.3125 -2.09375q0 -1.15625 0.3125 -2.09375q0.3125 -0.953125 0.890625 -1.609375q0.578125 -0.671875 1.390625 -1.015625q0.828125 -0.359375 1.875 -0.359375q1.0625 0 1.875 0.375q0.8125 0.375 1.34375 1.03125q0.546875 0.65625 0.8125 1.546875q0.28125 0.875 0.28125 1.875l0 0.765625l-6.671875 0l0 0.3125q0 1.125 0.65625 1.84375q0.671875 0.71875 1.90625 0.71875q0.890625 0 1.5 -0.390625q0.625 -0.390625 1.046875 -1.0625l1.203125 1.171875q-0.546875 0.890625 -1.578125 1.421875q-1.015625 0.53125 -2.375 0.53125zm0 -8.5625q-0.53125 0 -0.96875 0.1875q-0.4375 0.1875 -0.75 0.53125q-0.296875 0.328125 -0.46875 0.796875q-0.171875 0.46875 -0.171875 1.03125l0 0.125l4.515625 0l0 -0.1875q0 -1.125 -0.578125 -1.796875q-0.578125 -0.6875 -1.578125 -0.6875zm9.638489 8.5625q-1.375 0 -2.3125 -0.484375q-0.9375 -0.484375 -1.625 -1.34375l1.3125 -1.1875q0.53125 0.65625 1.1875 1.015625q0.671875 0.359375 1.546875 0.359375q0.90625 0 1.34375 -0.34375q0.4375 -0.34375 0.4375 -0.953125q0 -0.46875 -0.3125 -0.796875q-0.3125 -0.328125 -1.078125 -0.421875l-0.890625 -0.109375q-1.484375 -0.1875 -2.34375 -0.859375q-0.84375 -0.6875 -0.84375 -2.03125q0 -0.71875 0.25 -1.265625q0.265625 -0.546875 0.734375 -0.921875q0.484375 -0.390625 1.140625 -0.59375q0.671875 -0.203125 1.46875 -0.203125q1.3125 0 2.140625 0.40625q0.828125 0.40625 1.484375 1.140625l-1.25 1.1875q-0.375 -0.4375 -0.984375 -0.765625q-0.609375 -0.328125 -1.390625 -0.328125q-0.828125 0 -1.234375 0.34375q-0.40625 0.328125 -0.40625 0.859375q0 0.5625 0.359375 0.84375q0.359375 0.28125 1.140625 0.40625l0.890625 0.125q1.609375 0.234375 2.34375 0.9375q0.734375 0.703125 0.734375 1.875q0 0.703125 -0.28125 1.28125q-0.265625 0.5625 -0.765625 0.984375q-0.5 0.40625 -1.21875 0.625q-0.703125 0.21875 -1.578125 0.21875z" fill-rule="nonzero"/><path fill="#495057" d="m9.892224 150.4364l141.46742 0l0 70.88214l-141.46742 0z" fill-rule="evenodd"/><path fill="#ffffff" d="m36.57417 182.82872l-0.09375 0l-1.015625 2.109375l-2.859375 5.203125l-2.859375 -5.203125l-1.015625 -2.109375l-0.09375 0l0 9.96875l-2.015625 0l0 -13.015625l2.5 0l3.484375 6.609375l0.109375 0l3.484375 -6.609375l2.390625 0l0 13.015625l-2.015625 0l0 -9.96875zm12.186188 9.96875q-0.796875 0 -1.234375 -0.453125q-0.421875 -0.46875 -0.515625 -1.171875l-0.09375 0q-0.28125 0.921875 -1.03125 1.390625q-0.75 0.453125 -1.8125 0.453125q-1.5 0 -2.3125 -0.78125q-0.8125 -0.78125 -0.8125 -2.109375q0 -1.453125 1.046875 -2.171875q1.0625 -0.734375 3.09375 -0.734375l1.75 0l0 -0.828125q0 -0.890625 -0.484375 -1.375q-0.484375 -0.484375 -1.515625 -0.484375q-0.859375 0 -1.40625 0.375q-0.53125 0.375 -0.90625 0.953125l-1.203125 -1.109375q0.484375 -0.8125 1.359375 -1.34375q0.875 -0.53125 2.296875 -0.53125q1.875 0 2.875 0.875q1.015625 0.875 1.015625 2.515625l0 4.875l1.03125 0l0 1.65625l-1.140625 0zm-4.109375 -1.328125q0.953125 0 1.5625 -0.421875q0.625 -0.421875 0.625 -1.125l0 -1.390625l-1.71875 0q-2.109375 0 -2.109375 1.296875l0 0.34375q0 0.640625 0.4375 0.96875q0.4375 0.328125 1.203125 0.328125zm7.242279 1.328125l0 -9.703125l2.03125 0l0 1.609375l0.09375 0q0.328125 -0.78125 0.96875 -1.296875q0.640625 -0.53125 1.765625 -0.53125q1.484375 0 2.3125 0.984375q0.828125 0.96875 0.828125 2.78125l0 6.15625l-2.03125 0l0 -5.890625q0 -2.28125 -1.828125 -2.28125q-0.390625 0 -0.78125 0.109375q-0.375 0.09375 -0.671875 0.296875q-0.296875 0.203125 -0.484375 0.53125q-0.171875 0.3125 -0.171875 0.734375l0 6.5l-2.03125 0zm17.930012 0q-0.796875 0 -1.234375 -0.453125q-0.421875 -0.46875 -0.515625 -1.171875l-0.09375 0q-0.28125 0.921875 -1.03125 1.390625q-0.75 0.453125 -1.8125 0.453125q-1.5000038 0 -2.3125038 -0.78125q-0.8125 -0.78125 -0.8125 -2.109375q0 -1.453125 1.046875 -2.171875q1.0625038 -0.734375 3.0937538 -0.734375l1.75 0l0 -0.828125q0 -0.890625 -0.484375 -1.375q-0.484375 -0.484375 -1.515625 -0.484375q-0.859375 0 -1.40625 0.375q-0.5312538 0.375 -0.9062538 0.953125l-1.203125 -1.109375q0.484375 -0.8125 1.359375 -1.34375q0.8750038 -0.53125 2.2968788 -0.53125q1.875 0 2.875 0.875q1.015625 0.875 1.015625 2.515625l0 4.875l1.03125 0l0 1.65625l-1.140625 0zm-4.109375 -1.328125q0.953125 0 1.5625 -0.421875q0.625 -0.421875 0.625 -1.125l0 -1.390625l-1.71875 0q-2.109375 0 -2.109375 1.296875l0 0.34375q0 0.640625 0.4375 0.96875q0.4375 0.328125 1.203125 0.328125zm15.757904 2.25q0 1.5 -1.15625 2.265625q-1.15625 0.765625 -3.78125 0.765625q-1.1875 0 -2.015625 -0.15625q-0.828125 -0.15625 -1.359375 -0.453125q-0.53125 -0.296875 -0.78125 -0.734375q-0.234375 -0.421875 -0.234375 -0.984375q0 -0.796875 0.4375 -1.25q0.4375 -0.453125 1.21875 -0.625l0 -0.203125q-1.109375 -0.34375 -1.109375 -1.484375q0 -0.75 0.5 -1.140625q0.515625 -0.40625 1.21875 -0.578125l0 -0.078125q-0.859375 -0.40625 -1.3125 -1.140625q-0.453125 -0.734375 -0.453125 -1.734375q0 -1.484375 1.0 -2.390625q1.0 -0.921875 2.859375 -0.921875q1.03125 0 1.75 0.296875l0 -0.265625q0 -0.65625 0.3125 -1.015625q0.3125 -0.359375 0.953125 -0.359375l1.5 0l0 1.640625l-1.984375 0l0 0.390625q0.65625 0.421875 1.015625 1.109375q0.359375 0.6875 0.359375 1.515625q0 1.484375 -1.015625 2.390625q-1.0 0.890625 -2.875 0.890625q-0.703125 0 -1.265625 -0.140625q-0.375 0.125 -0.65625 0.359375q-0.28125 0.234375 -0.28125 0.609375q0 0.390625 0.359375 0.5625q0.359375 0.171875 1.0 0.171875l2.390625 0q1.796875 0 2.59375 0.71875q0.8125 0.71875 0.8125 1.96875zm-1.90625 0.21875q0 -0.5 -0.390625 -0.8125q-0.375 -0.296875 -1.390625 -0.296875l-3.28125 0q-0.671875 0.390625 -0.671875 1.125q0 0.59375 0.46875 0.953125q0.484375 0.375 1.625 0.375l1.265625 0q2.375 0 2.375 -1.34375zm-3.046875 -5.9375q0.890625 0 1.390625 -0.390625q0.5 -0.40625 0.5 -1.25l0 -0.375q0 -0.84375 -0.5 -1.234375q-0.5 -0.40625 -1.390625 -0.40625q-0.890625 0 -1.390625 0.40625q-0.484375 0.390625 -0.484375 1.234375l0 0.375q0 0.84375 0.484375 1.25q0.5 0.390625 1.390625 0.390625zm10.156403 5.015625q-1.046875 0 -1.875 -0.34375q-0.8125 -0.359375 -1.390625 -1.015625q-0.578125 -0.671875 -0.890625 -1.609375q-0.3125 -0.9375 -0.3125 -2.09375q0 -1.15625 0.3125 -2.09375q0.3125 -0.953125 0.890625 -1.609375q0.578125 -0.671875 1.390625 -1.015625q0.828125 -0.359375 1.875 -0.359375q1.0625 0 1.875 0.375q0.8125 0.375 1.34375 1.03125q0.546875 0.65625 0.8125 1.546875q0.28125 0.875 0.28125 1.875l0 0.765625l-6.671875 0l0 0.3125q0 1.125 0.65625 1.84375q0.671875 0.71875 1.90625 0.71875q0.890625 0 1.5 -0.390625q0.625 -0.390625 1.046875 -1.0625l1.203125 1.171875q-0.546875 0.890625 -1.578125 1.421875q-1.015625 0.53125 -2.375 0.53125zm0 -8.5625q-0.53125 0 -0.96875 0.1875q-0.4375 0.1875 -0.75 0.53125q-0.296875 0.328125 -0.46875 0.796875q-0.171875 0.46875 -0.171875 1.03125l0 0.125l4.515625 0l0 -0.1875q0 -1.125 -0.578125 -1.796875q-0.578125 -0.6875 -1.578125 -0.6875zm6.560379 8.34375l0 -9.703125l2.03125 0l0 1.609375l0.09375 0q0.15625 -0.375 0.359375 -0.703125q0.21875 -0.34375 0.53125 -0.59375q0.3125 -0.25 0.71875 -0.390625q0.421875 -0.140625 0.984375 -0.140625q0.984375 0 1.75 0.484375q0.765625 0.484375 1.125 1.484375l0.0625 0q0.25 -0.8125 1.0 -1.390625q0.75 -0.578125 1.921875 -0.578125q1.453125 0 2.25 0.984375q0.8125 0.96875 0.8125 2.78125l0 6.15625l-2.03125 0l0 -5.90625q0 -1.125 -0.4375 -1.6875q-0.421875 -0.578125 -1.359375 -0.578125q-0.390625 0 -0.75 0.109375q-0.34375 0.09375 -0.625 0.296875q-0.265625 0.203125 -0.4375 0.53125q-0.15625 0.3125 -0.15625 0.71875l0 6.515625l-2.046875 0l0 -5.90625q0 -2.265625 -1.765625 -2.265625q-0.375 0 -0.734375 0.109375q-0.359375 0.09375 -0.640625 0.296875q-0.28125 0.203125 -0.453125 0.53125q-0.171875 0.3125 -0.171875 0.71875l0 6.515625l-2.03125 0zm20.267319 0.21875q-1.046875 0 -1.875 -0.34375q-0.8125 -0.359375 -1.390625 -1.015625q-0.578125 -0.671875 -0.890625 -1.609375q-0.3125 -0.9375 -0.3125 -2.09375q0 -1.15625 0.3125 -2.09375q0.3125 -0.953125 0.890625 -1.609375q0.578125 -0.671875 1.390625 -1.015625q0.828125 -0.359375 1.875 -0.359375q1.0625 0 1.875 0.375q0.8125 0.375 1.34375 1.03125q0.546875 0.65625 0.8125 1.546875q0.28125 0.875 0.28125 1.875l0 0.765625l-6.671875 0l0 0.3125q0 1.125 0.65625 1.84375q0.671875 0.71875 1.90625 0.71875q0.890625 0 1.5 -0.390625q0.625 -0.390625 1.046875 -1.0625l1.203125 1.171875q-0.546875 0.890625 -1.578125 1.421875q-1.015625 0.53125 -2.375 0.53125zm0 -8.5625q-0.53125 0 -0.96875 0.1875q-0.4375 0.1875 -0.75 0.53125q-0.296875 0.328125 -0.46875 0.796875q-0.171875 0.46875 -0.171875 1.03125l0 0.125l4.515625 0l0 -0.1875q0 -1.125 -0.578125 -1.796875q-0.578125 -0.6875 -1.578125 -0.6875zm6.560379 8.34375l0 -9.703125l2.03125 0l0 1.609375l0.09375 0q0.328125 -0.78125 0.96875 -1.296875q0.640625 -0.53125 1.765625 -0.53125q1.484375 0 2.3125 0.984375q0.828125 0.96875 0.828125 2.78125l0 6.15625l-2.03125 0l0 -5.890625q0 -2.28125 -1.828125 -2.28125q-0.390625 0 -0.78125 0.109375q-0.375 0.09375 -0.671875 0.296875q-0.296875 0.203125 -0.484375 0.53125q-0.171875 0.3125 -0.171875 0.734375l0 6.5l-2.03125 0zm13.508133 0q-1.0625 0 -1.609375 -0.546875q-0.53125 -0.546875 -0.53125 -1.5625l0 -5.9375l-1.515625 0l0 -1.65625l0.828125 0q0.5 0 0.6875 -0.21875q0.203125 -0.234375 0.203125 -0.734375l0 -1.6875l1.828125 0l0 2.640625l2.03125 0l0 1.65625l-2.03125 0l0 6.390625l1.875 0l0 1.65625l-1.765625 0z" fill-rule="nonzero"/><path fill="#999999" d="m534.3216 150.43591l141.4674 0l0 70.882126l-141.4674 0z" fill-rule="evenodd"/><path fill="#ffffff" d="m561.00354 182.82823l-0.09375 0l-1.015625 2.109375l-2.859375 5.203125l-2.859375 -5.203125l-1.015625 -2.109375l-0.09375 0l0 9.96875l-2.015625 0l0 -13.015625l2.5 0l3.484375 6.609375l0.109375 0l3.484375 -6.609375l2.390625 0l0 13.015625l-2.015625 0l0 -9.96875zm12.186218 9.96875q-0.796875 0 -1.234375 -0.453125q-0.421875 -0.46875 -0.515625 -1.171875l-0.09375 0q-0.28125 0.921875 -1.03125 1.390625q-0.75 0.453125 -1.8125 0.453125q-1.5 0 -2.3125 -0.78125q-0.8125 -0.78125 -0.8125 -2.109375q0 -1.453125 1.046875 -2.171875q1.0625 -0.734375 3.09375 -0.734375l1.75 0l0 -0.828125q0 -0.890625 -0.484375 -1.375q-0.484375 -0.484375 -1.515625 -0.484375q-0.859375 0 -1.40625 0.375q-0.53125 0.375 -0.90625 0.953125l-1.203125 -1.109375q0.484375 -0.8125 1.359375 -1.34375q0.875 -0.53125 2.296875 -0.53125q1.875 0 2.875 0.875q1.015625 0.875 1.015625 2.515625l0 4.875l1.03125 0l0 1.65625l-1.140625 0zm-4.109375 -1.328125q0.953125 0 1.5625 -0.421875q0.625 -0.421875 0.625 -1.125l0 -1.390625l-1.71875 0q-2.109375 0 -2.109375 1.296875l0 0.34375q0 0.640625 0.4375 0.96875q0.4375 0.328125 1.203125 0.328125zm7.2422485 1.328125l0 -9.703125l2.03125 0l0 1.609375l0.09375 0q0.328125 -0.78125 0.96875 -1.296875q0.640625 -0.53125 1.765625 -0.53125q1.484375 0 2.3125 0.984375q0.828125 0.96875 0.828125 2.78125l0 6.15625l-2.03125 0l0 -5.890625q0 -2.28125 -1.828125 -2.28125q-0.390625 0 -0.78125 0.109375q-0.375 0.09375 -0.671875 0.296875q-0.296875 0.203125 -0.484375 0.53125q-0.171875 0.3125 -0.171875 0.734375l0 6.5l-2.03125 0zm17.929993 0q-0.796875 0 -1.234375 -0.453125q-0.421875 -0.46875 -0.515625 -1.171875l-0.09375 0q-0.28125 0.921875 -1.03125 1.390625q-0.75 0.453125 -1.8125 0.453125q-1.5 0 -2.3125 -0.78125q-0.8125 -0.78125 -0.8125 -2.109375q0 -1.453125 1.046875 -2.171875q1.0625 -0.734375 3.09375 -0.734375l1.75 0l0 -0.828125q0 -0.890625 -0.484375 -1.375q-0.484375 -0.484375 -1.515625 -0.484375q-0.859375 0 -1.40625 0.375q-0.53125 0.375 -0.90625 0.953125l-1.203125 -1.109375q0.484375 -0.8125 1.359375 -1.34375q0.875 -0.53125 2.296875 -0.53125q1.875 0 2.875 0.875q1.015625 0.875 1.015625 2.515625l0 4.875l1.03125 0l0 1.65625l-1.140625 0zm-4.109375 -1.328125q0.953125 0 1.5625 -0.421875q0.625 -0.421875 0.625 -1.125l0 -1.390625l-1.71875 0q-2.109375 0 -2.109375 1.296875l0 0.34375q0 0.640625 0.4375 0.96875q0.4375 0.328125 1.203125 0.328125zm15.757935 2.25q0 1.5 -1.15625 2.265625q-1.15625 0.765625 -3.78125 0.765625q-1.1875 0 -2.015625 -0.15625q-0.828125 -0.15625 -1.359375 -0.453125q-0.53125 -0.296875 -0.78125 -0.734375q-0.234375 -0.421875 -0.234375 -0.984375q0 -0.796875 0.4375 -1.25q0.4375 -0.453125 1.21875 -0.625l0 -0.203125q-1.109375 -0.34375 -1.109375 -1.484375q0 -0.75 0.5 -1.140625q0.515625 -0.40625 1.21875 -0.578125l0 -0.078125q-0.859375 -0.40625 -1.3125 -1.140625q-0.453125 -0.734375 -0.453125 -1.734375q0 -1.484375 1.0 -2.390625q1.0 -0.921875 2.859375 -0.921875q1.03125 0 1.75 0.296875l0 -0.265625q0 -0.65625 0.3125 -1.015625q0.3125 -0.359375 0.953125 -0.359375l1.5 0l0 1.640625l-1.984375 0l0 0.390625q0.65625 0.421875 1.015625 1.109375q0.359375 0.6875 0.359375 1.515625q0 1.484375 -1.015625 2.390625q-1.0 0.890625 -2.875 0.890625q-0.703125 0 -1.265625 -0.140625q-0.375 0.125 -0.65625 0.359375q-0.28125 0.234375 -0.28125 0.609375q0 0.390625 0.359375 0.5625q0.359375 0.171875 1.0 0.171875l2.390625 0q1.796875 0 2.59375 0.71875q0.8125 0.71875 0.8125 1.96875zm-1.90625 0.21875q0 -0.5 -0.390625 -0.8125q-0.375 -0.296875 -1.390625 -0.296875l-3.28125 0q-0.671875 0.390625 -0.671875 1.125q0 0.59375 0.46875 0.953125q0.484375 0.375 1.625 0.375l1.265625 0q2.375 0 2.375 -1.34375zm-3.046875 -5.9375q0.890625 0 1.390625 -0.390625q0.5 -0.40625 0.5 -1.25l0 -0.375q0 -0.84375 -0.5 -1.234375q-0.5 -0.40625 -1.390625 -0.40625q-0.890625 0 -1.390625 0.40625q-0.484375 0.390625 -0.484375 1.234375l0 0.375q0 0.84375 0.484375 1.25q0.5 0.390625 1.390625 0.390625zm10.156372 5.015625q-1.046875 0 -1.875 -0.34375q-0.8125 -0.359375 -1.390625 -1.015625q-0.578125 -0.671875 -0.890625 -1.609375q-0.3125 -0.9375 -0.3125 -2.09375q0 -1.15625 0.3125 -2.09375q0.3125 -0.953125 0.890625 -1.609375q0.578125 -0.671875 1.390625 -1.015625q0.828125 -0.359375 1.875 -0.359375q1.0625 0 1.875 0.375q0.8125 0.375 1.34375 1.03125q0.546875 0.65625 0.8125 1.546875q0.28125 0.875 0.28125 1.875l0 0.765625l-6.671875 0l0 0.3125q0 1.125 0.65625 1.84375q0.671875 0.71875 1.90625 0.71875q0.890625 0 1.5 -0.390625q0.625 -0.390625 1.046875 -1.0625l1.203125 1.171875q-0.546875 0.890625 -1.578125 1.421875q-1.015625 0.53125 -2.375 0.53125zm0 -8.5625q-0.53125 0 -0.96875 0.1875q-0.4375 0.1875 -0.75 0.53125q-0.296875 0.328125 -0.46875 0.796875q-0.171875 0.46875 -0.171875 1.03125l0 0.125l4.515625 0l0 -0.1875q0 -1.125 -0.578125 -1.796875q-0.578125 -0.6875 -1.578125 -0.6875zm6.560425 8.34375l0 -9.703125l2.03125 0l0 1.609375l0.09375 0q0.15625 -0.375 0.359375 -0.703125q0.21875 -0.34375 0.53125 -0.59375q0.3125 -0.25 0.71875 -0.390625q0.421875 -0.140625 0.984375 -0.140625q0.984375 0 1.75 0.484375q0.765625 0.484375 1.125 1.484375l0.0625 0q0.25 -0.8125 1.0 -1.390625q0.75 -0.578125 1.921875 -0.578125q1.453125 0 2.25 0.984375q0.8125 0.96875 0.8125 2.78125l0 6.15625l-2.03125 0l0 -5.90625q0 -1.125 -0.4375 -1.6875q-0.421875 -0.578125 -1.359375 -0.578125q-0.390625 0 -0.75 0.109375q-0.34375 0.09375 -0.625 0.296875q-0.265625 0.203125 -0.4375 0.53125q-0.15625 0.3125 -0.15625 0.71875l0 6.515625l-2.046875 0l0 -5.90625q0 -2.265625 -1.765625 -2.265625q-0.375 0 -0.734375 0.109375q-0.359375 0.09375 -0.640625 0.296875q-0.28125 0.203125 -0.453125 0.53125q-0.171875 0.3125 -0.171875 0.71875l0 6.515625l-2.03125 0zm20.267273 0.21875q-1.046875 0 -1.875 -0.34375q-0.8125 -0.359375 -1.390625 -1.015625q-0.578125 -0.671875 -0.890625 -1.609375q-0.3125 -0.9375 -0.3125 -2.09375q0 -1.15625 0.3125 -2.09375q0.3125 -0.953125 0.890625 -1.609375q0.578125 -0.671875 1.390625 -1.015625q0.828125 -0.359375 1.875 -0.359375q1.0625 0 1.875 0.375q0.8125 0.375 1.34375 1.03125q0.546875 0.65625 0.8125 1.546875q0.28125 0.875 0.28125 1.875l0 0.765625l-6.671875 0l0 0.3125q0 1.125 0.65625 1.84375q0.671875 0.71875 1.90625 0.71875q0.890625 0 1.5 -0.390625q0.625 -0.390625 1.046875 -1.0625l1.203125 1.171875q-0.546875 0.890625 -1.578125 1.421875q-1.015625 0.53125 -2.375 0.53125zm0 -8.5625q-0.53125 0 -0.96875 0.1875q-0.4375 0.1875 -0.75 0.53125q-0.296875 0.328125 -0.46875 0.796875q-0.171875 0.46875 -0.171875 1.03125l0 0.125l4.515625 0l0 -0.1875q0 -1.125 -0.578125 -1.796875q-0.578125 -0.6875 -1.578125 -0.6875zm6.560425 8.34375l0 -9.703125l2.03125 0l0 1.609375l0.09375 0q0.328125 -0.78125 0.96875 -1.296875q0.640625 -0.53125 1.765625 -0.53125q1.484375 0 2.3125 0.984375q0.828125 0.96875 0.828125 2.78125l0 6.15625l-2.03125 0l0 -5.890625q0 -2.28125 -1.828125 -2.28125q-0.390625 0 -0.78125 0.109375q-0.375 0.09375 -0.671875 0.296875q-0.296875 0.203125 -0.484375 0.53125q-0.171875 0.3125 -0.171875 0.734375l0 6.5l-2.03125 0zm13.508118 0q-1.0625 0 -1.609375 -0.546875q-0.53125 -0.546875 -0.53125 -1.5625l0 -5.9375l-1.515625 0l0 -1.65625l0.828125 0q0.5 0 0.6875 -0.21875q0.203125 -0.234375 0.203125 -0.734375l0 -1.6875l1.828125 0l0 2.640625l2.03125 0l0 1.65625l-2.03125 0l0 6.390625l1.875 0l0 1.65625l-1.765625 0z" fill-rule="nonzero"/><path fill="#000000" fill-opacity="0.0" d="m345.69577 90.175766l0 30.124176l259.3701 0l0 30.127792" fill-rule="evenodd"/><path stroke="#999999" stroke-width="1.0" stroke-linejoin="round" stroke-linecap="butt" d="m345.69577 90.175766l0 30.124176l259.3701 0l0 30.127792" fill-rule="evenodd"/><path fill="#000000" fill-opacity="0.0" d="m80.62593 150.4364l0 -30.124771l265.07086 0l0 -30.12719" fill-rule="evenodd"/><path stroke="#999999" stroke-width="1.0" stroke-linejoin="round" stroke-linecap="butt" d="m80.62593 150.4364l0 -30.124771l265.07086 0l0 -30.12719" fill-rule="evenodd"/><path fill="#ff623f" d="m184.70201 150.4364l141.46742 0l0 70.88214l-141.46742 0z" fill-rule="evenodd"/><path fill="#ffffff" d="m211.38396 182.82872l-0.09375 0l-1.015625 2.109375l-2.859375 5.203125l-2.859375 -5.203125l-1.015625 -2.109375l-0.09375 0l0 9.96875l-2.015625 0l0 -13.015625l2.5 0l3.484375 6.609375l0.109375 0l3.484375 -6.609375l2.390625 0l0 13.015625l-2.015625 0l0 -9.96875zm12.186188 9.96875q-0.796875 0 -1.234375 -0.453125q-0.421875 -0.46875 -0.515625 -1.171875l-0.09375 0q-0.28125 0.921875 -1.03125 1.390625q-0.75 0.453125 -1.8125 0.453125q-1.5 0 -2.3125 -0.78125q-0.8125 -0.78125 -0.8125 -2.109375q0 -1.453125 1.046875 -2.171875q1.0625 -0.734375 3.09375 -0.734375l1.75 0l0 -0.828125q0 -0.890625 -0.484375 -1.375q-0.484375 -0.484375 -1.515625 -0.484375q-0.859375 0 -1.40625 0.375q-0.53125 0.375 -0.90625 0.953125l-1.203125 -1.109375q0.484375 -0.8125 1.359375 -1.34375q0.875 -0.53125 2.296875 -0.53125q1.875 0 2.875 0.875q1.015625 0.875 1.015625 2.515625l0 4.875l1.03125 0l0 1.65625l-1.140625 0zm-4.109375 -1.328125q0.953125 0 1.5625 -0.421875q0.625 -0.421875 0.625 -1.125l0 -1.390625l-1.71875 0q-2.109375 0 -2.109375 1.296875l0 0.34375q0 0.640625 0.4375 0.96875q0.4375 0.328125 1.203125 0.328125zm7.242279 1.328125l0 -9.703125l2.03125 0l0 1.609375l0.09375 0q0.328125 -0.78125 0.96875 -1.296875q0.640625 -0.53125 1.765625 -0.53125q1.484375 0 2.3125 0.984375q0.828125 0.96875 0.828125 2.78125l0 6.15625l-2.03125 0l0 -5.890625q0 -2.28125 -1.828125 -2.28125q-0.390625 0 -0.78125 0.109375q-0.375 0.09375 -0.671875 0.296875q-0.296875 0.203125 -0.484375 0.53125q-0.171875 0.3125 -0.171875 0.734375l0 6.5l-2.03125 0zm17.930008 0q-0.796875 0 -1.234375 -0.453125q-0.421875 -0.46875 -0.515625 -1.171875l-0.09375 0q-0.28125 0.921875 -1.03125 1.390625q-0.75 0.453125 -1.8125 0.453125q-1.5 0 -2.3125 -0.78125q-0.8125 -0.78125 -0.8125 -2.109375q0 -1.453125 1.046875 -2.171875q1.0625 -0.734375 3.09375 -0.734375l1.75 0l0 -0.828125q0 -0.890625 -0.484375 -1.375q-0.484375 -0.484375 -1.515625 -0.484375q-0.859375 0 -1.40625 0.375q-0.53125 0.375 -0.90625 0.953125l-1.203125 -1.109375q0.484375 -0.8125 1.359375 -1.34375q0.875 -0.53125 2.296875 -0.53125q1.875 0 2.875 0.875q1.015625 0.875 1.015625 2.515625l0 4.875l1.03125 0l0 1.65625l-1.140625 0zm-4.109375 -1.328125q0.953125 0 1.5625 -0.421875q0.625 -0.421875 0.625 -1.125l0 -1.390625l-1.71875 0q-2.109375 0 -2.109375 1.296875l0 0.34375q0 0.640625 0.4375 0.96875q0.4375 0.328125 1.203125 0.328125zm15.757904 2.25q0 1.5 -1.15625 2.265625q-1.15625 0.765625 -3.78125 0.765625q-1.1875 0 -2.015625 -0.15625q-0.828125 -0.15625 -1.359375 -0.453125q-0.53125 -0.296875 -0.78125 -0.734375q-0.234375 -0.421875 -0.234375 -0.984375q0 -0.796875 0.4375 -1.25q0.4375 -0.453125 1.21875 -0.625l0 -0.203125q-1.109375 -0.34375 -1.109375 -1.484375q0 -0.75 0.5 -1.140625q0.515625 -0.40625 1.21875 -0.578125l0 -0.078125q-0.859375 -0.40625 -1.3125 -1.140625q-0.453125 -0.734375 -0.453125 -1.734375q0 -1.484375 1.0 -2.390625q1.0 -0.921875 2.859375 -0.921875q1.03125 0 1.75 0.296875l0 -0.265625q0 -0.65625 0.3125 -1.015625q0.3125 -0.359375 0.953125 -0.359375l1.5 0l0 1.640625l-1.984375 0l0 0.390625q0.65625 0.421875 1.015625 1.109375q0.359375 0.6875 0.359375 1.515625q0 1.484375 -1.015625 2.390625q-1.0 0.890625 -2.875 0.890625q-0.703125 0 -1.265625 -0.140625q-0.375 0.125 -0.65625 0.359375q-0.28125 0.234375 -0.28125 0.609375q0 0.390625 0.359375 0.5625q0.359375 0.171875 1.0 0.171875l2.390625 0q1.796875 0 2.59375 0.71875q0.8125 0.71875 0.8125 1.96875zm-1.90625 0.21875q0 -0.5 -0.390625 -0.8125q-0.375 -0.296875 -1.390625 -0.296875l-3.28125 0q-0.671875 0.390625 -0.671875 1.125q0 0.59375 0.46875 0.953125q0.484375 0.375 1.625 0.375l1.265625 0q2.375 0 2.375 -1.34375zm-3.046875 -5.9375q0.890625 0 1.390625 -0.390625q0.5 -0.40625 0.5 -1.25l0 -0.375q0 -0.84375 -0.5 -1.234375q-0.5 -0.40625 -1.390625 -0.40625q-0.890625 0 -1.390625 0.40625q-0.484375 0.390625 -0.484375 1.234375l0 0.375q0 0.84375 0.484375 1.25q0.5 0.390625 1.390625 0.390625zm10.156403 5.015625q-1.046875 0 -1.875 -0.34375q-0.8125 -0.359375 -1.390625 -1.015625q-0.578125 -0.671875 -0.890625 -1.609375q-0.3125 -0.9375 -0.3125 -2.09375q0 -1.15625 0.3125 -2.09375q0.3125 -0.953125 0.890625 -1.609375q0.578125 -0.671875 1.390625 -1.015625q0.828125 -0.359375 1.875 -0.359375q1.0625 0 1.875 0.375q0.8125 0.375 1.34375 1.03125q0.546875 0.65625 0.8125 1.546875q0.28125 0.875 0.28125 1.875l0 0.765625l-6.671875 0l0 0.3125q0 1.125 0.65625 1.84375q0.671875 0.71875 1.90625 0.71875q0.890625 0 1.5 -0.390625q0.625 -0.390625 1.046875 -1.0625l1.203125 1.171875q-0.546875 0.890625 -1.578125 1.421875q-1.015625 0.53125 -2.375 0.53125zm0 -8.5625q-0.53125 0 -0.96875 0.1875q-0.4375 0.1875 -0.75 0.53125q-0.296875 0.328125 -0.46875 0.796875q-0.171875 0.46875 -0.171875 1.03125l0 0.125l4.515625 0l0 -0.1875q0 -1.125 -0.578125 -1.796875q-0.578125 -0.6875 -1.578125 -0.6875zm6.5603943 8.34375l0 -9.703125l2.03125 0l0 1.609375l0.09375 0q0.15625 -0.375 0.359375 -0.703125q0.21875 -0.34375 0.53125 -0.59375q0.3125 -0.25 0.71875 -0.390625q0.421875 -0.140625 0.984375 -0.140625q0.984375 0 1.75 0.484375q0.765625 0.484375 1.125 1.484375l0.0625 0q0.25 -0.8125 1.0 -1.390625q0.75 -0.578125 1.921875 -0.578125q1.453125 0 2.25 0.984375q0.8125 0.96875 0.8125 2.78125l0 6.15625l-2.03125 0l0 -5.90625q0 -1.125 -0.4375 -1.6875q-0.421875 -0.578125 -1.359375 -0.578125q-0.390625 0 -0.75 0.109375q-0.34375 0.09375 -0.625 0.296875q-0.265625 0.203125 -0.4375 0.53125q-0.15625 0.3125 -0.15625 0.71875l0 6.515625l-2.046875 0l0 -5.90625q0 -2.265625 -1.765625 -2.265625q-0.375 0 -0.734375 0.109375q-0.359375 0.09375 -0.640625 0.296875q-0.28125 0.203125 -0.453125 0.53125q-0.171875 0.3125 -0.171875 0.71875l0 6.515625l-2.03125 0zm20.267303 0.21875q-1.046875 0 -1.875 -0.34375q-0.8125 -0.359375 -1.390625 -1.015625q-0.578125 -0.671875 -0.890625 -1.609375q-0.3125 -0.9375 -0.3125 -2.09375q0 -1.15625 0.3125 -2.09375q0.3125 -0.953125 0.890625 -1.609375q0.578125 -0.671875 1.390625 -1.015625q0.828125 -0.359375 1.875 -0.359375q1.0625 0 1.875 0.375q0.8125 0.375 1.34375 1.03125q0.546875 0.65625 0.8125 1.546875q0.28125 0.875 0.28125 1.875l0 0.765625l-6.671875 0l0 0.3125q0 1.125 0.65625 1.84375q0.671875 0.71875 1.90625 0.71875q0.890625 0 1.5 -0.390625q0.625 -0.390625 1.046875 -1.0625l1.203125 1.171875q-0.546875 0.890625 -1.578125 1.421875q-1.015625 0.53125 -2.375 0.53125zm0 -8.5625q-0.53125 0 -0.96875 0.1875q-0.4375 0.1875 -0.75 0.53125q-0.296875 0.328125 -0.46875 0.796875q-0.171875 0.46875 -0.171875 1.03125l0 0.125l4.515625 0l0 -0.1875q0 -1.125 -0.578125 -1.796875q-0.578125 -0.6875 -1.578125 -0.6875zm6.5603943 8.34375l0 -9.703125l2.03125 0l0 1.609375l0.09375 0q0.328125 -0.78125 0.96875 -1.296875q0.640625 -0.53125 1.765625 -0.53125q1.484375 0 2.3125 0.984375q0.828125 0.96875 0.828125 2.78125l0 6.15625l-2.03125 0l0 -5.890625q0 -2.28125 -1.828125 -2.28125q-0.390625 0 -0.78125 0.109375q-0.375 0.09375 -0.671875 0.296875q-0.296875 0.203125 -0.484375 0.53125q-0.171875 0.3125 -0.171875 0.734375l0 6.5l-2.03125 0zm13.508118 0q-1.0625 0 -1.609375 -0.546875q-0.53125 -0.546875 -0.53125 -1.5625l0 -5.9375l-1.515625 0l0 -1.65625l0.828125 0q0.5 0 0.6875 -0.21875q0.203125 -0.234375 0.203125 -0.734375l0 -1.6875l1.828125 0l0 2.640625l2.03125 0l0 1.65625l-2.03125 0l0 6.390625l1.875 0l0 1.65625l-1.765625 0z" fill-rule="nonzero"/><path fill="#3c78d8" d="m359.5118 150.4364l141.4674 0l0 70.88214l-141.4674 0z" fill-rule="evenodd"/><path fill="#ffffff" d="m386.19376 182.82872l-0.09375 0l-1.015625 2.109375l-2.859375 5.203125l-2.859375 -5.203125l-1.015625 -2.109375l-0.09375 0l0 9.96875l-2.015625 0l0 -13.015625l2.5 0l3.484375 6.609375l0.109375 0l3.484375 -6.609375l2.390625 0l0 13.015625l-2.015625 0l0 -9.96875zm12.186188 9.96875q-0.796875 0 -1.234375 -0.453125q-0.421875 -0.46875 -0.515625 -1.171875l-0.09375 0q-0.28125 0.921875 -1.03125 1.390625q-0.75 0.453125 -1.8125 0.453125q-1.5 0 -2.3125 -0.78125q-0.8125 -0.78125 -0.8125 -2.109375q0 -1.453125 1.046875 -2.171875q1.0625 -0.734375 3.09375 -0.734375l1.75 0l0 -0.828125q0 -0.890625 -0.484375 -1.375q-0.484375 -0.484375 -1.515625 -0.484375q-0.859375 0 -1.40625 0.375q-0.53125 0.375 -0.90625 0.953125l-1.203125 -1.109375q0.484375 -0.8125 1.359375 -1.34375q0.875 -0.53125 2.296875 -0.53125q1.875 0 2.875 0.875q1.015625 0.875 1.015625 2.515625l0 4.875l1.03125 0l0 1.65625l-1.140625 0zm-4.109375 -1.328125q0.953125 0 1.5625 -0.421875q0.625 -0.421875 0.625 -1.125l0 -1.390625l-1.71875 0q-2.109375 0 -2.109375 1.296875l0 0.34375q0 0.640625 0.4375 0.96875q0.4375 0.328125 1.203125 0.328125zm7.242279 1.328125l0 -9.703125l2.03125 0l0 1.609375l0.09375 0q0.328125 -0.78125 0.96875 -1.296875q0.640625 -0.53125 1.765625 -0.53125q1.484375 0 2.3125 0.984375q0.828125 0.96875 0.828125 2.78125l0 6.15625l-2.03125 0l0 -5.890625q0 -2.28125 -1.828125 -2.28125q-0.390625 0 -0.78125 0.109375q-0.375 0.09375 -0.671875 0.296875q-0.296875 0.203125 -0.484375 0.53125q-0.171875 0.3125 -0.171875 0.734375l0 6.5l-2.03125 0zm17.929993 0q-0.796875 0 -1.234375 -0.453125q-0.421875 -0.46875 -0.515625 -1.171875l-0.09375 0q-0.28125 0.921875 -1.03125 1.390625q-0.75 0.453125 -1.8125 0.453125q-1.5 0 -2.3125 -0.78125q-0.8125 -0.78125 -0.8125 -2.109375q0 -1.453125 1.046875 -2.171875q1.0625 -0.734375 3.09375 -0.734375l1.75 0l0 -0.828125q0 -0.890625 -0.484375 -1.375q-0.484375 -0.484375 -1.515625 -0.484375q-0.859375 0 -1.40625 0.375q-0.53125 0.375 -0.90625 0.953125l-1.203125 -1.109375q0.484375 -0.8125 1.359375 -1.34375q0.875 -0.53125 2.296875 -0.53125q1.875 0 2.875 0.875q1.015625 0.875 1.015625 2.515625l0 4.875l1.03125 0l0 1.65625l-1.140625 0zm-4.109375 -1.328125q0.953125 0 1.5625 -0.421875q0.625 -0.421875 0.625 -1.125l0 -1.390625l-1.71875 0q-2.109375 0 -2.109375 1.296875l0 0.34375q0 0.640625 0.4375 0.96875q0.4375 0.328125 1.203125 0.328125zm15.757904 2.25q0 1.5 -1.15625 2.265625q-1.15625 0.765625 -3.78125 0.765625q-1.1875 0 -2.015625 -0.15625q-0.828125 -0.15625 -1.359375 -0.453125q-0.53125 -0.296875 -0.78125 -0.734375q-0.234375 -0.421875 -0.234375 -0.984375q0 -0.796875 0.4375 -1.25q0.4375 -0.453125 1.21875 -0.625l0 -0.203125q-1.109375 -0.34375 -1.109375 -1.484375q0 -0.75 0.5 -1.140625q0.515625 -0.40625 1.21875 -0.578125l0 -0.078125q-0.859375 -0.40625 -1.3125 -1.140625q-0.453125 -0.734375 -0.453125 -1.734375q0 -1.484375 1.0 -2.390625q1.0 -0.921875 2.859375 -0.921875q1.03125 0 1.75 0.296875l0 -0.265625q0 -0.65625 0.3125 -1.015625q0.3125 -0.359375 0.953125 -0.359375l1.5 0l0 1.640625l-1.984375 0l0 0.390625q0.65625 0.421875 1.015625 1.109375q0.359375 0.6875 0.359375 1.515625q0 1.484375 -1.015625 2.390625q-1.0 0.890625 -2.875 0.890625q-0.703125 0 -1.265625 -0.140625q-0.375 0.125 -0.65625 0.359375q-0.28125 0.234375 -0.28125 0.609375q0 0.390625 0.359375 0.5625q0.359375 0.171875 1.0 0.171875l2.390625 0q1.796875 0 2.59375 0.71875q0.8125 0.71875 0.8125 1.96875zm-1.90625 0.21875q0 -0.5 -0.390625 -0.8125q-0.375 -0.296875 -1.390625 -0.296875l-3.28125 0q-0.671875 0.390625 -0.671875 1.125q0 0.59375 0.46875 0.953125q0.484375 0.375 1.625 0.375l1.265625 0q2.375 0 2.375 -1.34375zm-3.046875 -5.9375q0.890625 0 1.390625 -0.390625q0.5 -0.40625 0.5 -1.25l0 -0.375q0 -0.84375 -0.5 -1.234375q-0.5 -0.40625 -1.390625 -0.40625q-0.890625 0 -1.390625 0.40625q-0.484375 0.390625 -0.484375 1.234375l0 0.375q0 0.84375 0.484375 1.25q0.5 0.390625 1.390625 0.390625zm10.156403 5.015625q-1.046875 0 -1.875 -0.34375q-0.8125 -0.359375 -1.390625 -1.015625q-0.578125 -0.671875 -0.890625 -1.609375q-0.3125 -0.9375 -0.3125 -2.09375q0 -1.15625 0.3125 -2.09375q0.3125 -0.953125 0.890625 -1.609375q0.578125 -0.671875 1.390625 -1.015625q0.828125 -0.359375 1.875 -0.359375q1.0625 0 1.875 0.375q0.8125 0.375 1.34375 1.03125q0.546875 0.65625 0.8125 1.546875q0.28125 0.875 0.28125 1.875l0 0.765625l-6.671875 0l0 0.3125q0 1.125 0.65625 1.84375q0.671875 0.71875 1.90625 0.71875q0.890625 0 1.5 -0.390625q0.625 -0.390625 1.046875 -1.0625l1.203125 1.171875q-0.546875 0.890625 -1.578125 1.421875q-1.015625 0.53125 -2.375 0.53125zm0 -8.5625q-0.53125 0 -0.96875 0.1875q-0.4375 0.1875 -0.75 0.53125q-0.296875 0.328125 -0.46875 0.796875q-0.171875 0.46875 -0.171875 1.03125l0 0.125l4.515625 0l0 -0.1875q0 -1.125 -0.578125 -1.796875q-0.578125 -0.6875 -1.578125 -0.6875zm6.5603943 8.34375l0 -9.703125l2.03125 0l0 1.609375l0.09375 0q0.15625 -0.375 0.359375 -0.703125q0.21875 -0.34375 0.53125 -0.59375q0.3125 -0.25 0.71875 -0.390625q0.421875 -0.140625 0.984375 -0.140625q0.984375 0 1.75 0.484375q0.765625 0.484375 1.125 1.484375l0.0625 0q0.25 -0.8125 1.0 -1.390625q0.75 -0.578125 1.921875 -0.578125q1.453125 0 2.25 0.984375q0.8125 0.96875 0.8125 2.78125l0 6.15625l-2.03125 0l0 -5.90625q0 -1.125 -0.4375 -1.6875q-0.421875 -0.578125 -1.359375 -0.578125q-0.390625 0 -0.75 0.109375q-0.34375 0.09375 -0.625 0.296875q-0.265625 0.203125 -0.4375 0.53125q-0.15625 0.3125 -0.15625 0.71875l0 6.515625l-2.046875 0l0 -5.90625q0 -2.265625 -1.765625 -2.265625q-0.375 0 -0.734375 0.109375q-0.359375 0.09375 -0.640625 0.296875q-0.28125 0.203125 -0.453125 0.53125q-0.171875 0.3125 -0.171875 0.71875l0 6.515625l-2.03125 0zm20.267303 0.21875q-1.046875 0 -1.875 -0.34375q-0.8125 -0.359375 -1.390625 -1.015625q-0.578125 -0.671875 -0.890625 -1.609375q-0.3125 -0.9375 -0.3125 -2.09375q0 -1.15625 0.3125 -2.09375q0.3125 -0.953125 0.890625 -1.609375q0.578125 -0.671875 1.390625 -1.015625q0.828125 -0.359375 1.875 -0.359375q1.0625 0 1.875 0.375q0.8125 0.375 1.34375 1.03125q0.546875 0.65625 0.8125 1.546875q0.28125 0.875 0.28125 1.875l0 0.765625l-6.671875 0l0 0.3125q0 1.125 0.65625 1.84375q0.671875 0.71875 1.90625 0.71875q0.890625 0 1.5 -0.390625q0.625 -0.390625 1.046875 -1.0625l1.203125 1.171875q-0.546875 0.890625 -1.578125 1.421875q-1.015625 0.53125 -2.375 0.53125zm0 -8.5625q-0.53125 0 -0.96875 0.1875q-0.4375 0.1875 -0.75 0.53125q-0.296875 0.328125 -0.46875 0.796875q-0.171875 0.46875 -0.171875 1.03125l0 0.125l4.515625 0l0 -0.1875q0 -1.125 -0.578125 -1.796875q-0.578125 -0.6875 -1.578125 -0.6875zm6.5603943 8.34375l0 -9.703125l2.03125 0l0 1.609375l0.09375 0q0.328125 -0.78125 0.96875 -1.296875q0.640625 -0.53125 1.765625 -0.53125q1.484375 0 2.3125 0.984375q0.828125 0.96875 0.828125 2.78125l0 6.15625l-2.03125 0l0 -5.890625q0 -2.28125 -1.828125 -2.28125q-0.390625 0 -0.78125 0.109375q-0.375 0.09375 -0.671875 0.296875q-0.296875 0.203125 -0.484375 0.53125q-0.171875 0.3125 -0.171875 0.734375l0 6.5l-2.03125 0zm13.508118 0q-1.0625 0 -1.609375 -0.546875q-0.53125 -0.546875 -0.53125 -1.5625l0 -5.9375l-1.515625 0l0 -1.65625l0.828125 0q0.5 0 0.6875 -0.21875q0.203125 -0.234375 0.203125 -0.734375l0 -1.6875l1.828125 0l0 2.640625l2.03125 0l0 1.65625l-2.03125 0l0 6.390625l1.875 0l0 1.65625l-1.765625 0z" fill-rule="nonzero"/><path fill="#000000" fill-opacity="0.0" d="m80.62593 221.31854l0 40.343506" fill-rule="evenodd"/><path stroke="#999999" stroke-width="1.0" stroke-linejoin="round" stroke-linecap="butt" d="m80.62593 221.31854l0 34.343506" fill-rule="evenodd"/><path fill="#999999" stroke="#999999" stroke-width="1.0" stroke-linecap="butt" d="m78.9742 255.66205l1.6517334 4.5381165l1.6517334 -4.5381165z" fill-rule="evenodd"/><path fill="#000000" fill-opacity="0.0" d="m255.43307 221.31854l0 40.343506" fill-rule="evenodd"/><path stroke="#999999" stroke-width="1.0" stroke-linejoin="round" stroke-linecap="butt" d="m255.43307 221.31854l0 34.343506" fill-rule="evenodd"/><path fill="#999999" stroke="#999999" stroke-width="1.0" stroke-linecap="butt" d="m253.78134 255.66205l1.6517334 4.5381165l1.6517334 -4.5381165z" fill-rule="evenodd"/><path fill="#000000" fill-opacity="0.0" d="m430.24344 221.31854l0 40.343506" fill-rule="evenodd"/><path stroke="#999999" stroke-width="1.0" stroke-linejoin="round" stroke-linecap="butt" d="m430.24344 221.31854l0 34.343506" fill-rule="evenodd"/><path fill="#999999" stroke="#999999" stroke-width="1.0" stroke-linecap="butt" d="m428.5917 255.66205l1.6517334 4.5381165l1.6517334 -4.5381165z" fill-rule="evenodd"/><path fill="#000000" fill-opacity="0.0" d="m605.05383 221.31854l0 40.343506" fill-rule="evenodd"/><path stroke="#999999" stroke-width="1.0" stroke-linejoin="round" stroke-linecap="butt" d="m605.05383 221.31854l0 34.343506" fill-rule="evenodd"/><path fill="#999999" stroke="#999999" stroke-width="1.0" stroke-linecap="butt" d="m603.4021 255.66205l1.6517334 4.5381165l1.6517334 -4.5381165z" fill-rule="evenodd"/><path fill="#495057" d="m65.76378 282.0735l0 0c0 -7.8939514 6.3859253 -14.293304 14.263367 -14.293304l0 0c3.7828827 0 7.4108276 1.5059204 10.085724 4.186432c2.6749039 2.6805115 4.177643 6.3160706 4.177643 10.106873l0 0c0 7.893982 -6.3859253 14.293304 -14.263367 14.293304l0 0c-7.8774414 0 -14.263367 -6.3993225 -14.263367 -14.293304z" fill-rule="evenodd"/><path fill="#495057" d="m45.710693 308.75473l0 0c0 -7.893982 6.385929 -14.293304 14.2633705 -14.293304l0 0c3.7828827 0 7.410824 1.5058899 10.085728 4.1864014c2.6748962 2.6805115 4.177643 6.3160706 4.177643 10.106903l0 0c0 7.8939514 -6.3859253 14.293304 -14.2633705 14.293304l0 0c-7.8774414 0 -14.2633705 -6.399353 -14.2633705 -14.293304z" fill-rule="evenodd"/><path fill="#495057" d="m85.65096 308.75473l0 0c0 -7.893982 6.3859253 -14.293304 14.263367 -14.293304l0 0c3.7828827 0 7.4108276 1.5058899 10.085724 4.1864014c2.6749039 2.6805115 4.1776505 6.3160706 4.1776505 10.106903l0 0c0 7.8939514 -6.385933 14.293304 -14.263374 14.293304l0 0c-7.8774414 0 -14.263367 -6.399353 -14.263367 -14.293304z" fill-rule="evenodd"/><path fill="#495057" d="m27.806416 336.78592l0 0c0 -7.893982 6.385929 -14.293304 14.2633705 -14.293304l0 0c3.7828789 0 7.410824 1.5058899 10.085724 4.1864014c2.6749 2.6805115 4.1776466 6.3160706 4.1776466 10.106903l0 0c0 7.8939514 -6.385929 14.293304 -14.2633705 14.293304l0 0c-7.8774414 0 -14.2633705 -6.399353 -14.2633705 -14.293304z" fill-rule="evenodd"/><path fill="#495057" d="m65.76378 336.78592l0 0c0 -7.893982 6.3859253 -14.293304 14.263367 -14.293304l0 0c3.7828827 0 7.4108276 1.5058899 10.085724 4.1864014c2.6749039 2.6805115 4.177643 6.3160706 4.177643 10.106903l0 0c0 7.8939514 -6.3859253 14.293304 -14.263367 14.293304l0 0c-7.8774414 0 -14.263367 -6.399353 -14.263367 -14.293304z" fill-rule="evenodd"/><path fill="#495057" d="m104.834885 336.78592l0 0c0 -7.893982 6.385933 -14.293304 14.263374 -14.293304l0 0c3.782875 0 7.41082 1.5058899 10.085716 4.1864014c2.6749115 2.6805115 4.177658 6.3160706 4.177658 10.106903l0 0c0 7.8939514 -6.385933 14.293304 -14.263374 14.293304l0 0c-7.8774414 0 -14.263374 -6.399353 -14.263374 -14.293304z" fill-rule="evenodd"/><path fill="#ff623f" d="m240.70198 282.0735l0 0c0 -7.8939514 6.3859253 -14.293304 14.263367 -14.293304l0 0c3.7828827 0 7.4108124 1.5059204 10.085709 4.186432c2.6749268 2.6805115 4.177643 6.3160706 4.177643 10.106873l0 0c0 7.893982 -6.3859253 14.293304 -14.263351 14.293304l0 0c-7.8774414 0 -14.263367 -6.3993225 -14.263367 -14.293304z" fill-rule="evenodd"/><path fill="#ff623f" d="m220.6489 308.75473l0 0c0 -7.893982 6.3859253 -14.293304 14.263367 -14.293304l0 0c3.7828827 0 7.4108276 1.5058899 10.085724 4.1864014c2.6748962 2.6805115 4.177643 6.3160706 4.177643 10.106903l0 0c0 7.8939514 -6.3859253 14.293304 -14.263367 14.293304l0 0c-7.8774414 0 -14.263367 -6.399353 -14.263367 -14.293304z" fill-rule="evenodd"/><path fill="#ff623f" d="m260.58917 308.75473l0 0c0 -7.893982 6.3859253 -14.293304 14.263367 -14.293304l0 0c3.7828674 0 7.4108276 1.5058899 10.085724 4.1864014c2.6748962 2.6805115 4.177643 6.3160706 4.177643 10.106903l0 0c0 7.8939514 -6.3859253 14.293304 -14.263367 14.293304l0 0c-7.8774414 0 -14.263367 -6.399353 -14.263367 -14.293304z" fill-rule="evenodd"/><path fill="#ff623f" d="m202.74461 336.78592l0 0c0 -7.893982 6.3859253 -14.293304 14.263367 -14.293304l0 0c3.7828827 0 7.4108276 1.5058899 10.085724 4.1864014c2.6749115 2.6805115 4.177643 6.3160706 4.177643 10.106903l0 0c0 7.8939514 -6.3859253 14.293304 -14.263367 14.293304l0 0c-7.8774414 0 -14.263367 -6.399353 -14.263367 -14.293304z" fill-rule="evenodd"/><path fill="#ff623f" d="m240.70198 336.78592l0 0c0 -7.893982 6.3859253 -14.293304 14.263367 -14.293304l0 0c3.7828827 0 7.4108124 1.5058899 10.085709 4.1864014c2.6749268 2.6805115 4.177643 6.3160706 4.177643 10.106903l0 0c0 7.8939514 -6.3859253 14.293304 -14.263351 14.293304l0 0c-7.8774414 0 -14.263367 -6.399353 -14.263367 -14.293304z" fill-rule="evenodd"/><path fill="#ff623f" d="m279.77307 336.78592l0 0c0 -7.893982 6.385956 -14.293304 14.263397 -14.293304l0 0c3.7828674 0 7.410797 1.5058899 10.085724 4.1864014c2.6748962 2.6805115 4.177643 6.3160706 4.177643 10.106903l0 0c0 7.8939514 -6.3859253 14.293304 -14.263367 14.293304l0 0c-7.8774414 0 -14.263397 -6.399353 -14.263397 -14.293304z" fill-rule="evenodd"/><path fill="#3c78d8" d="m415.64017 282.0735l0 0c0 -7.8939514 6.3859253 -14.293304 14.263367 -14.293304l0 0c3.782898 0 7.4108276 1.5059204 10.085724 4.186432c2.6748962 2.6805115 4.177643 6.3160706 4.177643 10.106873l0 0c0 7.893982 -6.3859253 14.293304 -14.263367 14.293304l0 0c-7.8774414 0 -14.263367 -6.3993225 -14.263367 -14.293304z" fill-rule="evenodd"/><path fill="#3c78d8" d="m395.5871 308.75473l0 0c0 -7.893982 6.3859253 -14.293304 14.263367 -14.293304l0 0c3.7828674 0 7.4108276 1.5058899 10.085724 4.1864014c2.6748962 2.6805115 4.177643 6.3160706 4.177643 10.106903l0 0c0 7.8939514 -6.3859253 14.293304 -14.263367 14.293304l0 0c-7.8774414 0 -14.263367 -6.399353 -14.263367 -14.293304z" fill-rule="evenodd"/><path fill="#3c78d8" d="m435.52734 308.75473l0 0c0 -7.893982 6.385956 -14.293304 14.263397 -14.293304l0 0c3.7828674 0 7.410797 1.5058899 10.085724 4.1864014c2.6748962 2.6805115 4.177643 6.3160706 4.177643 10.106903l0 0c0 7.8939514 -6.3859253 14.293304 -14.263367 14.293304l0 0c-7.8774414 0 -14.263397 -6.399353 -14.263397 -14.293304z" fill-rule="evenodd"/><path fill="#3c78d8" d="m377.6828 336.78592l0 0c0 -7.893982 6.3859253 -14.293304 14.263367 -14.293304l0 0c3.782898 0 7.4108276 1.5058899 10.085754 4.1864014c2.6748962 2.6805115 4.177643 6.3160706 4.177643 10.106903l0 0c0 7.8939514 -6.385956 14.293304 -14.263397 14.293304l0 0c-7.8774414 0 -14.263367 -6.399353 -14.263367 -14.293304z" fill-rule="evenodd"/><path fill="#3c78d8" d="m415.64017 336.78592l0 0c0 -7.893982 6.3859253 -14.293304 14.263367 -14.293304l0 0c3.782898 0 7.4108276 1.5058899 10.085724 4.1864014c2.6748962 2.6805115 4.177643 6.3160706 4.177643 10.106903l0 0c0 7.8939514 -6.3859253 14.293304 -14.263367 14.293304l0 0c-7.8774414 0 -14.263367 -6.399353 -14.263367 -14.293304z" fill-rule="evenodd"/><path fill="#3c78d8" d="m454.71127 336.78592l0 0c0 -7.893982 6.3859253 -14.293304 14.263367 -14.293304l0 0c3.782898 0 7.4108276 1.5058899 10.085724 4.1864014c2.6749268 2.6805115 4.1776733 6.3160706 4.1776733 10.106903l0 0c0 7.8939514 -6.385956 14.293304 -14.263397 14.293304l0 0c-7.8774414 0 -14.263367 -6.399353 -14.263367 -14.293304z" fill-rule="evenodd"/><path fill="#999999" d="m590.57837 282.0735l0 0c0 -7.8939514 6.3859253 -14.293304 14.263367 -14.293304l0 0c3.782898 0 7.4108276 1.5059204 10.085754 4.186432c2.6748657 2.6805115 4.1776123 6.3160706 4.1776123 10.106873l0 0c0 7.893982 -6.3859253 14.293304 -14.263367 14.293304l0 0c-7.8774414 0 -14.263367 -6.3993225 -14.263367 -14.293304z" fill-rule="evenodd"/><path fill="#999999" d="m570.52527 308.75473l0 0c0 -7.893982 6.3859253 -14.293304 14.263367 -14.293304l0 0c3.782898 0 7.4108276 1.5058899 10.085754 4.1864014c2.6748657 2.6805115 4.1776123 6.3160706 4.1776123 10.106903l0 0c0 7.8939514 -6.3859253 14.293304 -14.263367 14.293304l0 0c-7.8774414 0 -14.263367 -6.399353 -14.263367 -14.293304z" fill-rule="evenodd"/><path fill="#999999" d="m610.4656 308.75473l0 0c0 -7.893982 6.3859253 -14.293304 14.263367 -14.293304l0 0c3.782837 0 7.4108276 1.5058899 10.085693 4.1864014c2.6749268 2.6805115 4.1776733 6.3160706 4.1776733 10.106903l0 0c0 7.8939514 -6.3859253 14.293304 -14.263367 14.293304l0 0c-7.8774414 0 -14.263367 -6.399353 -14.263367 -14.293304z" fill-rule="evenodd"/><path fill="#999999" d="m552.62103 336.78592l0 0c0 -7.893982 6.3859253 -14.293304 14.263367 -14.293304l0 0c3.782837 0 7.4108276 1.5058899 10.085693 4.1864014c2.6749268 2.6805115 4.1776733 6.3160706 4.1776733 10.106903l0 0c0 7.8939514 -6.3859253 14.293304 -14.263367 14.293304l0 0c-7.8774414 0 -14.263367 -6.399353 -14.263367 -14.293304z" fill-rule="evenodd"/><path fill="#999999" d="m590.57837 336.78592l0 0c0 -7.893982 6.3859253 -14.293304 14.263367 -14.293304l0 0c3.782898 0 7.4108276 1.5058899 10.085754 4.1864014c2.6748657 2.6805115 4.1776123 6.3160706 4.1776123 10.106903l0 0c0 7.8939514 -6.3859253 14.293304 -14.263367 14.293304l0 0c-7.8774414 0 -14.263367 -6.399353 -14.263367 -14.293304z" fill-rule="evenodd"/><path fill="#999999" d="m629.6495 336.78592l0 0c0 -7.893982 6.3859253 -14.293304 14.263367 -14.293304l0 0c3.782898 0 7.4108276 1.5058899 10.085754 4.1864014c2.6748657 2.6805115 4.1776123 6.3160706 4.1776123 10.106903l0 0c0 7.8939514 -6.3859253 14.293304 -14.263367 14.293304l0 0c-7.8774414 0 -14.263367 -6.399353 -14.263367 -14.293304z" fill-rule="evenodd"/><path fill="#000000" fill-opacity="0.0" d="m255.05746 120.33361l0.3779602 30.110237" fill-rule="evenodd"/><path stroke="#999999" stroke-width="1.0" stroke-linejoin="round" stroke-linecap="butt" d="m255.05746 120.33361l0.3779602 30.110237" fill-rule="evenodd"/><path fill="#000000" fill-opacity="0.0" d="m430.27234 120.33361l0.37826538 30.10279" fill-rule="evenodd"/><path stroke="#999999" stroke-width="1.0" stroke-linejoin="round" stroke-linecap="butt" d="m430.27234 120.33361l0.37826538 30.10279" fill-rule="evenodd"/><path fill="#000000" fill-opacity="0.0" d="m-2.3097113E-5 0.33070865l236.0945 0l0 48.94488l-236.0945 0z" fill-rule="evenodd"/><path fill="#000000" d="m37.609352 33.551273l-5.890625 0l0 5.671875l-2.109375 0l0 -13.015623l2.109375 0l0 5.484375l5.890625 0l0 -5.484375l2.109375 0l0 13.015623l-2.109375 0l0 -5.671875zm6.195572 -5.765623q-0.640625 0 -0.9375 -0.296875q-0.28125 -0.296875 -0.28125 -0.765625l0 -0.3125q0 -0.46875 0.28125 -0.765625q0.296875 -0.296875 0.9375 -0.296875q0.625 0 0.90625 0.296875q0.28125 0.296875 0.28125 0.765625l0 0.3125q0 0.46875 -0.28125 0.765625q-0.28125 0.296875 -0.90625 0.296875zm-1.03125 1.734375l2.03125 0l0 9.703123l-2.03125 0l0 -9.703123zm8.756409 9.921873q-1.046875 0 -1.875 -0.34375q-0.8125 -0.359375 -1.390625 -1.015625q-0.578125 -0.671875 -0.890625 -1.609375q-0.3125 -0.9375 -0.3125 -2.09375q0 -1.15625 0.3125 -2.09375q0.3125 -0.9531231 0.890625 -1.6093731q0.578125 -0.671875 1.390625 -1.015625q0.828125 -0.359375 1.875 -0.359375q1.0625 0 1.875 0.375q0.8125 0.375 1.34375 1.03125q0.546875 0.65625 0.8125 1.5468731q0.28125 0.875 0.28125 1.875l0 0.765625l-6.671875 0l0 0.3125q0 1.125 0.65625 1.84375q0.671875 0.71875 1.90625 0.71875q0.890625 0 1.5 -0.390625q0.625 -0.390625 1.046875 -1.0625l1.203125 1.171875q-0.546875 0.890625 -1.578125 1.421875q-1.015625 0.53125 -2.375 0.53125zm0 -8.562498q-0.53125 0 -0.96875 0.1875q-0.4375 0.1875 -0.75 0.53125q-0.296875 0.328125 -0.46875 0.7968731q-0.171875 0.46875 -0.171875 1.03125l0 0.125l4.515625 0l0 -0.1875q0 -1.125 -0.578125 -1.7968731q-0.578125 -0.6875 -1.578125 -0.6875zm6.560379 8.343748l0 -9.703123l2.03125 0l0 1.875l0.09375 0q0.203125 -0.75 0.859375 -1.3125q0.65625 -0.5625 1.8125 -0.5625l0.546875 0l0 1.953125l-0.8125 0q-1.203125 0 -1.859375 0.40625q-0.640625 0.3906231 -0.640625 1.1562481l0 6.1875l-2.03125 0zm14.105377 0q-0.796875 0 -1.234375 -0.453125q-0.421875 -0.46875 -0.515625 -1.171875l-0.09375 0q-0.28125 0.921875 -1.03125 1.390625q-0.75 0.453125 -1.8125 0.453125q-1.5 0 -2.3125 -0.78125q-0.8125 -0.78125 -0.8125 -2.109375q0 -1.453125 1.046875 -2.171875q1.0625 -0.734375 3.09375 -0.734375l1.75 0l0 -0.828125q0 -0.8906231 -0.484375 -1.3749981q-0.484375 -0.484375 -1.515625 -0.484375q-0.859375 0 -1.40625 0.375q-0.53125 0.375 -0.90625 0.9531231l-1.203125 -1.1093731q0.484375 -0.8125 1.359375 -1.34375q0.875 -0.53125 2.296875 -0.53125q1.875 0 2.875 0.875q1.015625 0.875 1.015625 2.515623l0 4.875l1.03125 0l0 1.65625l-1.140625 0zm-4.109375 -1.328125q0.953125 0 1.5625 -0.421875q0.625 -0.421875 0.625 -1.125l0 -1.390625l-1.71875 0q-2.109375 0 -2.109375 1.296875l0 0.34375q0 0.640625 0.4375 0.96875q0.4375 0.328125 1.203125 0.328125zm7.242279 1.328125l0 -9.703123l2.03125 0l0 1.875l0.09375 0q0.203125 -0.75 0.859375 -1.3125q0.65625 -0.5625 1.8125 -0.5625l0.546875 0l0 1.953125l-0.8125 0q-1.203125 0 -1.859375 0.40625q-0.640625 0.3906231 -0.640625 1.1562481l0 6.1875l-2.03125 0zm10.802002 0.21875q-1.046875 0 -1.875 -0.34375q-0.8125 -0.359375 -1.375 -1.015625q-0.546875 -0.671875 -0.859375 -1.609375q-0.296875 -0.9375 -0.296875 -2.09375q0 -1.15625 0.296875 -2.09375q0.3125 -0.9531231 0.859375 -1.6093731q0.5625 -0.671875 1.375 -1.015625q0.828125 -0.359375 1.875 -0.359375q1.453125 0 2.390625 0.65625q0.9375 0.640625 1.359375 1.734375l-1.671875 0.7812481q-0.203125 -0.6718731 -0.71875 -1.0781231q-0.515625 -0.40625 -1.359375 -0.40625q-1.125 0 -1.6875 0.703125q-0.5625 0.7031231 -0.5625 1.8281231l0 1.734375q0 1.109375 0.5625 1.8125q0.5625 0.703125 1.6875 0.703125q0.890625 0 1.421875 -0.4375q0.53125 -0.4375 0.859375 -1.171875l1.546875 0.828125q-0.484375 1.1875 -1.453125 1.828125q-0.96875 0.625 -2.375 0.625zm5.764694 -14.031248l2.03125 0l0 5.71875l0.09375 0q0.328125 -0.78125 0.96875 -1.296875q0.640625 -0.53125 1.765625 -0.53125q1.484375 0 2.3125 0.984375q0.828125 0.96875 0.828125 2.781248l0 6.15625l-2.03125 0l0 -5.90625q0 -2.265623 -1.828125 -2.265623q-0.390625 0 -0.78125 0.109375q-0.375 0.09375 -0.671875 0.296875q-0.296875 0.203125 -0.484375 0.53125q-0.171875 0.3124981 -0.171875 0.7187481l0 6.515625l-2.03125 0l0 -13.812498zm11.851883 2.375q-0.640625 0 -0.9375 -0.296875q-0.28125 -0.296875 -0.28125 -0.765625l0 -0.3125q0 -0.46875 0.28125 -0.765625q0.296875 -0.296875 0.9375 -0.296875q0.625 0 0.90625 0.296875q0.28125 0.296875 0.28125 0.765625l0 0.3125q0 0.46875 -0.28125 0.765625q-0.28125 0.296875 -0.90625 0.296875zm-1.03125 1.734375l2.03125 0l0 9.703123l-2.03125 0l0 -9.703123zm8.693909 9.921873q-1.046875 0 -1.875 -0.34375q-0.8125 -0.359375 -1.375 -1.015625q-0.546875 -0.671875 -0.859375 -1.609375q-0.296875 -0.9375 -0.296875 -2.09375q0 -1.15625 0.296875 -2.09375q0.3125 -0.9531231 0.859375 -1.6093731q0.5625 -0.671875 1.375 -1.015625q0.828125 -0.359375 1.875 -0.359375q1.453125 0 2.390625 0.65625q0.9375 0.640625 1.359375 1.734375l-1.671875 0.7812481q-0.203125 -0.6718731 -0.71875 -1.0781231q-0.515625 -0.40625 -1.359375 -0.40625q-1.125 0 -1.6875 0.703125q-0.5625 0.7031231 -0.5625 1.8281231l0 1.734375q0 1.109375 0.5625 1.8125q0.5625 0.703125 1.6875 0.703125q0.890625 0 1.421875 -0.4375q0.53125 -0.4375 0.859375 -1.171875l1.546875 0.828125q-0.484375 1.1875 -1.453125 1.828125q-0.96875 0.625 -2.375 0.625zm12.874069 -0.21875q-0.796875 0 -1.234375 -0.453125q-0.421875 -0.46875 -0.515625 -1.171875l-0.09375 0q-0.28125 0.921875 -1.03125 1.390625q-0.75 0.453125 -1.8125 0.453125q-1.5 0 -2.3125 -0.78125q-0.8125 -0.78125 -0.8125 -2.109375q0 -1.453125 1.046875 -2.171875q1.0625 -0.734375 3.09375 -0.734375l1.75 0l0 -0.828125q0 -0.8906231 -0.484375 -1.3749981q-0.484375 -0.484375 -1.515625 -0.484375q-0.859375 0 -1.40625 0.375q-0.53125 0.375 -0.90625 0.9531231l-1.203125 -1.1093731q0.484375 -0.8125 1.359375 -1.34375q0.875 -0.53125 2.296875 -0.53125q1.875 0 2.875 0.875q1.015625 0.875 1.015625 2.515623l0 4.875l1.03125 0l0 1.65625l-1.140625 0zm-4.109375 -1.328125q0.953125 0 1.5625 -0.421875q0.625 -0.421875 0.625 -1.125l0 -1.390625l-1.71875 0q-2.109375 0 -2.109375 1.296875l0 0.34375q0 0.640625 0.4375 0.96875q0.4375 0.328125 1.203125 0.328125zm9.320396 1.328125q-1.046875 0 -1.5624924 -0.53125q-0.515625 -0.53125 -0.515625 -1.484375l0 -11.796873l2.0312424 0l0 12.156248l1.34375 0l0 1.65625l-1.296875 0zm10.71991 0.21875q-1.375 0 -2.3125 -0.484375q-0.9375 -0.484375 -1.625 -1.34375l1.3125 -1.1875q0.53125 0.65625 1.1875 1.015625q0.671875 0.359375 1.546875 0.359375q0.90625 0 1.34375 -0.34375q0.4375 -0.34375 0.4375 -0.953125q0 -0.46875 -0.3125 -0.796875q-0.3125 -0.328125 -1.078125 -0.421875l-0.890625 -0.109375q-1.484375 -0.1875 -2.34375 -0.859375q-0.84375 -0.6875 -0.84375 -2.03125q0 -0.7187481 0.25 -1.2656231q0.265625 -0.546875 0.734375 -0.921875q0.484375 -0.390625 1.140625 -0.59375q0.671875 -0.203125 1.46875 -0.203125q1.3125 0 2.140625 0.40625q0.828125 0.40625 1.484375 1.140625l-1.25 1.1874981q-0.375 -0.4374981 -0.984375 -0.7656231q-0.609375 -0.328125 -1.390625 -0.328125q-0.828125 0 -1.234375 0.34375q-0.40625 0.328125 -0.40625 0.8593731q0 0.5625 0.359375 0.84375q0.359375 0.28125 1.140625 0.40625l0.890625 0.125q1.609375 0.234375 2.34375 0.9375q0.734375 0.703125 0.734375 1.875q0 0.703125 -0.28125 1.28125q-0.265625 0.5625 -0.765625 0.984375q-0.5 0.40625 -1.21875 0.625q-0.703125 0.21875 -1.578125 0.21875zm8.6949005 -0.21875q-1.0625 0 -1.609375 -0.546875q-0.53125 -0.546875 -0.53125 -1.5625l0 -5.937498l-1.515625 0l0 -1.65625l0.828125 0q0.5 0 0.6875 -0.21875q0.203125 -0.234375 0.203125 -0.734375l0 -1.6875l1.828125 0l0 2.640625l2.03125 0l0 1.65625l-2.03125 0l0 6.390623l1.875 0l0 1.65625l-1.765625 0zm4.12204 0l0 -9.703123l2.03125 0l0 1.875l0.09375 0q0.203125 -0.75 0.859375 -1.3125q0.65625 -0.5625 1.8125 -0.5625l0.546875 0l0 1.953125l-0.8125 0q-1.203125 0 -1.859375 0.40625q-0.640625 0.3906231 -0.640625 1.1562481l0 6.1875l-2.03125 0zm13.02034 -1.609375l-0.078125 0q-0.125 0.359375 -0.34375 0.703125q-0.203125 0.328125 -0.53125 0.578125q-0.328125 0.25 -0.796875 0.390625q-0.453125 0.15625 -1.046875 0.15625q-1.515625 0 -2.34375 -0.96875q-0.828125 -0.96875 -0.828125 -2.78125l0 -6.171873l2.03125 0l0 5.921873q0 2.25 1.875 2.25q0.390625 0 0.765625 -0.09375q0.375 -0.109375 0.65625 -0.3125q0.296875 -0.203125 0.46875 -0.515625q0.171875 -0.328125 0.171875 -0.75l0 -6.499998l2.03125 0l0 9.703123l-2.03125 0l0 -1.609375zm8.695633 1.828125q-1.046875 0 -1.875 -0.34375q-0.8125 -0.359375 -1.375 -1.015625q-0.546875 -0.671875 -0.859375 -1.609375q-0.296875 -0.9375 -0.296875 -2.09375q0 -1.15625 0.296875 -2.09375q0.3125 -0.9531231 0.859375 -1.6093731q0.5625 -0.671875 1.375 -1.015625q0.828125 -0.359375 1.875 -0.359375q1.453125 0 2.390625 0.65625q0.9375 0.640625 1.359375 1.734375l-1.671875 0.7812481q-0.203125 -0.6718731 -0.71875 -1.0781231q-0.515625 -0.40625 -1.359375 -0.40625q-1.125 0 -1.6875 0.703125q-0.5625 0.7031231 -0.5625 1.8281231l0 1.734375q0 1.109375 0.5625 1.8125q0.5625 0.703125 1.6875 0.703125q0.890625 0 1.421875 -0.4375q0.53125 -0.4375 0.859375 -1.171875l1.546875 0.828125q-0.484375 1.1875 -1.453125 1.828125q-0.96875 0.625 -2.375 0.625zm8.452194 -0.21875q-1.0625 0 -1.609375 -0.546875q-0.53125 -0.546875 -0.53125 -1.5625l0 -5.937498l-1.515625 0l0 -1.65625l0.828125 0q0.5 0 0.6875 -0.21875q0.203125 -0.234375 0.203125 -0.734375l0 -1.6875l1.828125 0l0 2.640625l2.03125 0l0 1.65625l-2.03125 0l0 6.390623l1.875 0l0 1.65625l-1.765625 0zm9.99704 -1.609375l-0.078125 0q-0.125 0.359375 -0.34375 0.703125q-0.203125 0.328125 -0.53125 0.578125q-0.328125 0.25 -0.796875 0.390625q-0.453125 0.15625 -1.046875 0.15625q-1.515625 0 -2.34375 -0.96875q-0.828125 -0.96875 -0.828125 -2.78125l0 -6.171873l2.03125 0l0 5.921873q0 2.25 1.875 2.25q0.390625 0 0.765625 -0.09375q0.375 -0.109375 0.65625 -0.3125q0.296875 -0.203125 0.46875 -0.515625q0.171875 -0.328125 0.171875 -0.75l0 -6.499998l2.03125 0l0 9.703123l-2.03125 0l0 -1.609375zm4.945633 1.609375l0 -9.703123l2.03125 0l0 1.875l0.09375 0q0.203125 -0.75 0.859375 -1.3125q0.65625 -0.5625 1.8125 -0.5625l0.546875 0l0 1.953125l-0.8125 0q-1.203125 0 -1.859375 0.40625q-0.640625 0.3906231 -0.640625 1.1562481l0 6.1875l-2.03125 0zm10.864502 0.21875q-1.046875 0 -1.875 -0.34375q-0.8125 -0.359375 -1.390625 -1.015625q-0.578125 -0.671875 -0.890625 -1.609375q-0.3125 -0.9375 -0.3125 -2.09375q0 -1.15625 0.3125 -2.09375q0.3125 -0.9531231 0.890625 -1.6093731q0.578125 -0.671875 1.390625 -1.015625q0.828125 -0.359375 1.875 -0.359375q1.0625 0 1.875 0.375q0.8125 0.375 1.34375 1.03125q0.546875 0.65625 0.8125 1.5468731q0.28125 0.875 0.28125 1.875l0 0.765625l-6.671875 0l0 0.3125q0 1.125 0.65625 1.84375q0.671875 0.71875 1.90625 0.71875q0.890625 0 1.5 -0.390625q0.625 -0.390625 1.046875 -1.0625l1.203125 1.171875q-0.546875 0.890625 -1.578125 1.421875q-1.015625 0.53125 -2.375 0.53125zm0 -8.562498q-0.53125 0 -0.96875 0.1875q-0.4375 0.1875 -0.75 0.53125q-0.296875 0.328125 -0.46875 0.7968731q-0.171875 0.46875 -0.171875 1.03125l0 0.125l4.515625 0l0 -0.1875q0 -1.125 -0.578125 -1.7968731q-0.578125 -0.6875 -1.578125 -0.6875z" fill-rule="nonzero"/></g></svg>